<?xml version="1.0" encoding="UTF-8"?>
<!-- Generator: visioncortex VTracer 0.6.4 -->
<svg version="1.1" xmlns="http://www.w3.org/2000/svg" width="128" height="128">
<path d="M0,0 L1,0 L1,1 L0,1 Z M97,0 L98,0 L98,1 L97,1 Z M-6,2 L-5,2 L-5,3 L-6,3 Z M103,2 L104,2 L104,3 L103,3 Z M-9,5 L-8,5 L-8,6 L-9,6 Z M106,5 L107,5 L107,6 L106,6 Z M-11,11 L-10,11 L-10,12 L-11,12 Z M108,11 L109,11 L109,12 L108,12 Z M1,119 L97,119 L97,120 L1,120 Z " fill="#353C51" transform="translate(15,4)"/>
<path d="M0,0 L96,0 L96,1 L101,1 L101,2 L102,2 L102,3 L104,3 L104,4 L105,4 L105,6 L106,6 L106,7 L107,7 L107,12 L108,12 L108,108 L107,108 L107,113 L106,113 L106,114 L105,114 L105,116 L104,116 L104,117 L102,117 L102,118 L100,118 L100,119 L-4,119 L-4,118 L-6,118 L-6,117 L-8,117 L-8,116 L-9,116 L-9,114 L-10,114 L-10,113 L-11,113 L-11,108 L-12,108 L-12,12 L-11,12 L-11,7 L-10,7 L-10,6 L-9,6 L-9,4 L-8,4 L-8,3 L-6,3 L-6,2 L-5,2 L-5,1 L0,1 Z M38,15 L38,16 L34,16 L34,17 L31,17 L31,18 L29,18 L29,19 L26,19 L26,30 L25,30 L25,31 L24,31 L24,32 L22,32 L22,33 L21,33 L21,34 L20,34 L20,35 L19,35 L19,36 L17,36 L17,35 L15,35 L15,34 L14,34 L14,33 L12,33 L12,32 L8,32 L8,34 L7,34 L7,35 L6,35 L6,36 L5,36 L5,37 L4,37 L4,39 L3,39 L3,40 L2,40 L2,42 L1,42 L1,45 L2,45 L2,46 L3,46 L3,48 L4,48 L4,49 L5,49 L5,50 L6,50 L6,83 L7,83 L7,89 L8,89 L8,91 L9,91 L9,92 L10,92 L10,93 L11,93 L11,94 L12,94 L12,95 L13,95 L13,96 L14,96 L14,97 L15,97 L15,98 L17,98 L17,99 L19,99 L19,100 L22,100 L22,101 L25,101 L25,102 L29,102 L29,103 L34,103 L34,104 L46,104 L46,105 L50,105 L50,104 L62,104 L62,103 L67,103 L67,102 L71,102 L71,101 L74,101 L74,100 L77,100 L77,99 L79,99 L79,98 L81,98 L81,97 L82,97 L82,96 L83,96 L83,95 L84,95 L84,94 L85,94 L85,93 L86,93 L86,92 L87,92 L87,91 L88,91 L88,88 L89,88 L89,83 L90,83 L90,50 L91,50 L91,49 L92,49 L92,48 L93,48 L93,46 L94,46 L94,45 L95,45 L95,42 L94,42 L94,40 L93,40 L93,39 L92,39 L92,37 L91,37 L91,36 L90,36 L90,35 L89,35 L89,34 L88,34 L88,32 L84,32 L84,33 L82,33 L82,34 L81,34 L81,35 L79,35 L79,36 L77,36 L77,35 L76,35 L76,34 L75,34 L75,33 L74,33 L74,32 L72,32 L72,31 L70,31 L70,19 L67,19 L67,18 L65,18 L65,17 L62,17 L62,16 L58,16 L58,15 L57,15 L57,16 L56,16 L56,18 L55,18 L55,20 L54,20 L54,22 L53,22 L53,24 L43,24 L43,22 L42,22 L42,20 L41,20 L41,18 L40,18 L40,16 L39,16 L39,15 Z " fill="#363D52" transform="translate(16,4)"/>
<path d="M0,0 L2,0 L2,2 L3,2 L3,4 L4,4 L4,5 L5,5 L5,8 L6,8 L6,9 L16,9 L16,7 L17,7 L17,5 L18,5 L18,3 L19,3 L19,2 L20,2 L20,0 L23,0 L23,1 L26,1 L26,2 L29,2 L29,3 L31,3 L31,4 L33,4 L33,10 L32,10 L32,15 L34,15 L34,16 L35,16 L35,17 L37,17 L37,18 L38,18 L38,19 L39,19 L39,20 L40,20 L40,21 L42,21 L42,20 L43,20 L43,19 L45,19 L45,18 L47,18 L47,17 L48,17 L48,16 L50,16 L50,17 L51,17 L51,19 L52,19 L52,20 L53,20 L53,21 L54,21 L54,22 L55,22 L55,24 L56,24 L56,25 L57,25 L57,29 L56,29 L56,30 L55,30 L55,32 L54,32 L54,33 L53,33 L53,35 L52,35 L52,70 L51,70 L51,73 L50,73 L50,75 L49,75 L49,76 L48,76 L48,78 L46,78 L46,79 L45,79 L45,80 L44,80 L44,81 L42,81 L42,82 L40,82 L40,83 L38,83 L38,84 L35,84 L35,85 L33,85 L33,86 L28,86 L28,87 L20,87 L20,88 L0,88 L0,87 L-7,87 L-7,86 L-11,86 L-11,85 L-14,85 L-14,84 L-16,84 L-16,83 L-19,83 L-19,82 L-20,82 L-20,81 L-22,81 L-22,80 L-23,80 L-23,79 L-25,79 L-25,78 L-26,78 L-26,76 L-27,76 L-27,75 L-28,75 L-28,73 L-29,73 L-29,70 L-30,70 L-30,35 L-31,35 L-31,33 L-32,33 L-32,32 L-33,32 L-33,30 L-34,30 L-34,29 L-35,29 L-35,25 L-34,25 L-34,24 L-33,24 L-33,22 L-32,22 L-32,21 L-31,21 L-31,20 L-30,20 L-30,18 L-29,18 L-29,17 L-28,17 L-28,16 L-26,16 L-26,17 L-25,17 L-25,18 L-23,18 L-23,19 L-21,19 L-21,20 L-20,20 L-20,21 L-18,21 L-18,20 L-17,20 L-17,19 L-16,19 L-16,18 L-15,18 L-15,17 L-13,17 L-13,16 L-12,16 L-12,15 L-10,15 L-10,10 L-11,10 L-11,4 L-10,4 L-10,3 L-7,3 L-7,2 L-5,2 L-5,1 L0,1 Z " fill="#478CBF" transform="translate(53,20)"/>
<path d="M0,0 L96,0 L96,1 L101,1 L101,2 L103,2 L103,3 L105,3 L105,4 L106,4 L106,5 L107,5 L107,6 L108,6 L108,7 L109,7 L109,9 L110,9 L110,11 L111,11 L111,16 L112,16 L112,112 L111,112 L111,117 L110,117 L110,119 L109,119 L109,121 L108,121 L108,122 L107,122 L107,123 L106,123 L106,124 L105,124 L105,125 L103,125 L103,126 L101,126 L101,127 L-5,127 L-5,126 L-7,126 L-7,125 L-9,125 L-9,124 L-10,124 L-10,123 L-11,123 L-11,122 L-12,122 L-12,121 L-13,121 L-13,119 L-14,119 L-14,117 L-15,117 L-15,112 L-16,112 L-16,16 L-15,16 L-15,11 L-14,11 L-14,9 L-13,9 L-13,7 L-12,7 L-12,6 L-11,6 L-11,5 L-10,5 L-10,4 L-9,4 L-9,3 L-7,3 L-7,2 L-5,2 L-5,1 L0,1 Z M-4,4 L-4,5 L-6,5 L-6,6 L-7,6 L-7,7 L-8,7 L-8,8 L-9,8 L-9,9 L-10,9 L-10,10 L-11,10 L-11,12 L-12,12 L-12,115 L-11,115 L-11,118 L-10,118 L-10,119 L-9,119 L-9,120 L-8,120 L-8,121 L-7,121 L-7,122 L-6,122 L-6,123 L-4,123 L-4,124 L99,124 L99,123 L102,123 L102,122 L103,122 L103,121 L104,121 L104,120 L105,120 L105,119 L106,119 L106,118 L107,118 L107,115 L108,115 L108,12 L107,12 L107,10 L106,10 L106,9 L105,9 L105,8 L104,8 L104,7 L103,7 L103,6 L102,6 L102,5 L99,5 L99,4 Z " fill="#212532" transform="translate(16,0)"/>
<path d="M0,0 L8,0 L8,1 L13,1 L13,7 L14,7 L14,9 L18,9 L18,10 L34,10 L34,5 L35,5 L35,3 L47,3 L47,5 L48,5 L48,10 L64,10 L64,9 L68,9 L68,6 L69,6 L69,1 L74,1 L74,0 L82,0 L82,3 L81,3 L81,8 L80,8 L80,10 L79,10 L79,11 L78,11 L78,13 L77,13 L77,14 L75,14 L75,15 L74,15 L74,16 L73,16 L73,17 L71,17 L71,18 L69,18 L69,19 L66,19 L66,20 L64,20 L64,21 L60,21 L60,22 L54,22 L54,23 L42,23 L42,24 L40,24 L40,23 L27,23 L27,22 L22,22 L22,21 L18,21 L18,20 L16,20 L16,19 L13,19 L13,18 L11,18 L11,17 L9,17 L9,16 L8,16 L8,15 L6,15 L6,14 L5,14 L5,13 L4,13 L4,11 L3,11 L3,10 L2,10 L2,8 L1,8 L1,3 L0,3 Z " fill="#478CBF" transform="translate(23,84)"/>
<path d="M0,0 L1,0 L1,1 L0,1 Z M12,8 L13,8 L13,9 L12,9 Z M63,8 L64,8 L64,9 L63,9 Z " fill="#478BBE" transform="translate(26,95)"/>
<path d="M0,0 L7,0 L7,1 L16,1 L16,2 L17,2 L17,10 L30,10 L30,8 L31,8 L31,4 L32,4 L32,3 L50,3 L50,4 L51,4 L51,10 L65,10 L65,2 L66,2 L66,1 L74,1 L74,0 L82,0 L82,3 L78,3 L78,4 L68,4 L68,12 L67,12 L67,13 L61,13 L61,14 L49,14 L49,13 L48,13 L48,6 L34,6 L34,13 L33,13 L33,14 L21,14 L21,13 L15,13 L15,12 L14,12 L14,5 L13,5 L13,4 L4,4 L4,3 L0,3 Z " fill="#FFFFFF" transform="translate(23,80)"/>
<path d="M0,0 L6,0 L6,1 L8,1 L8,2 L10,2 L10,3 L11,3 L11,5 L12,5 L12,7 L13,7 L13,12 L12,12 L12,14 L11,14 L11,15 L10,15 L10,16 L9,16 L9,17 L7,17 L7,18 L-1,18 L-1,17 L-2,17 L-2,16 L-3,16 L-3,15 L-4,15 L-4,14 L-5,14 L-5,12 L-6,12 L-6,7 L-5,7 L-5,5 L-4,5 L-4,3 L-3,3 L-3,2 L-1,2 L-1,1 L0,1 Z " fill="#FFFFFF" transform="translate(82,56)"/>
<path d="M0,0 L6,0 L6,1 L8,1 L8,2 L10,2 L10,3 L11,3 L11,5 L12,5 L12,7 L13,7 L13,12 L12,12 L12,14 L11,14 L11,15 L10,15 L10,16 L9,16 L9,17 L7,17 L7,18 L-1,18 L-1,17 L-2,17 L-2,16 L-3,16 L-3,15 L-4,15 L-4,14 L-5,14 L-5,12 L-6,12 L-6,7 L-5,7 L-5,5 L-4,5 L-4,3 L-3,3 L-3,2 L-1,2 L-1,1 L0,1 Z " fill="#FFFFFF" transform="translate(39,56)"/>
<path d="M0,0 L6,0 L6,1 L8,1 L8,3 L9,3 L9,9 L8,9 L8,10 L7,10 L7,11 L6,11 L6,12 L1,12 L1,11 L0,11 L0,10 L-1,10 L-1,9 L-2,9 L-2,8 L-3,8 L-3,4 L-2,4 L-2,2 L-1,2 L-1,1 L0,1 Z " fill="#414042" transform="translate(40,60)"/>
<path d="M0,0 L5,0 L5,1 L7,1 L7,2 L8,2 L8,9 L7,9 L7,10 L6,10 L6,11 L5,11 L5,12 L0,12 L0,11 L-1,11 L-1,10 L-2,10 L-2,9 L-3,9 L-3,3 L-2,3 L-2,1 L0,1 Z " fill="#414042" transform="translate(82,60)"/>
<path d="M0,0 L96,0 L96,1 L0,1 Z " fill="#212632" opacity="0.972549" transform="translate(16,127)"/>
<path d="M0,0 L103,0 L103,1 L0,1 Z " fill="#353C51" transform="translate(12,123)"/>
<path d="M0,0 L4,0 L4,1 L5,1 L5,12 L4,12 L4,13 L0,13 L0,12 L-1,12 L-1,1 L0,1 Z " fill="#FFFFFF" transform="translate(62,62)"/>
<path d="M0,0 L1,0 L1,32 L0,32 Z " fill="#373F54" transform="translate(105,55)"/>
<path d="M0,0 L1,0 L1,29 L0,29 Z " fill="#384056" transform="translate(22,55)"/>
<path d="M0,0 L1,0 L1,4 L2,4 L2,2 L3,2 L3,6 L4,6 L4,7 L5,7 L5,8 L6,8 L6,10 L7,10 L7,11 L5,11 L5,10 L4,10 L4,9 L3,9 L3,8 L2,8 L2,7 L1,7 L1,5 L0,5 Z " fill="#FFFFFF" transform="translate(76,63)"/>
<path d="M0,0 L18,0 L18,1 L0,1 Z " fill="#FAFCFD" transform="translate(55,83)"/>
<path d="M0,0 L14,0 L14,2 L13,2 L13,1 L0,1 Z " fill="#7DAED2" transform="translate(57,86)"/>
<path d="M0,0 L1,0 L1,4 L2,4 L2,2 L3,2 L3,6 L2,6 L2,7 L1,7 L1,5 L0,5 Z " fill="#FFFFFF" transform="translate(76,63)"/>
<path d="M0,0 L1,0 L1,5 L0,5 L0,7 L-1,7 L-1,6 L-2,6 L-2,2 L-1,2 L-1,4 L0,4 Z " fill="#FFFFFF" transform="translate(51,63)"/>
<path d="M0,0 L1,0 L1,11 L0,11 Z " fill="#F5F9FC" transform="translate(66,63)"/>
<path d="M0,0 L1,0 L1,11 L0,11 Z " fill="#F8FBFD" transform="translate(61,63)"/>
<path d="M0,0 L2,0 L2,2 L1,2 L1,3 L0,3 L0,4 L-2,4 L-2,2 L-1,2 L-1,1 L0,1 Z " fill="#FFFFFF" transform="translate(48,69)"/>
<path d="M0,0 L8,0 L8,1 L0,1 Z " fill="#4686B6" transform="translate(53,107)"/>
<path d="M0,0 L8,0 L8,1 L0,1 Z " fill="#73A8CE" transform="translate(76,93)"/>
<path d="M0,0 L8,0 L8,1 L0,1 Z " fill="#CFE1EE" transform="translate(44,93)"/>
<path d="M0,0 L1,0 L1,3 L-5,3 L-5,2 L0,2 Z " fill="#AACAE1" transform="translate(53,88)"/>
<path d="M0,0 L4,0 L4,1 L1,1 L1,5 L0,5 Z " fill="#5C99C6" transform="translate(91,84)"/>
<path d="M0,0 L7,0 L7,1 L1,1 L1,2 L0,2 Z " fill="#FFFFFF" transform="translate(23,80)"/>
<path d="M0,0 L8,0 L8,1 L0,1 Z " fill="#FBFDFE" transform="translate(97,80)"/>
<path d="M0,0 L8,0 L8,1 L0,1 Z " fill="#3C5370" transform="translate(59,28)"/>
<path d="M0,0 L1,0 L1,1 L0,1 Z M-1,1 L0,1 L0,2 L-1,2 Z " fill="#222632" opacity="0.9411765" transform="translate(5,4)"/>
<path d="M0,0 L1,0 L1,1 L0,1 Z M-1,1 L0,1 L0,2 L-1,2 Z M-2,2 L-1,2 L-1,3 L-2,3 Z M-3,3 L-2,3 L-2,4 L-3,4 Z M-4,4 L-3,4 L-3,5 L-4,5 Z " fill="#212532" transform="translate(7,3)"/>
<path d="M0,0 L1,0 L1,7 L0,7 Z " fill="#394157" transform="translate(105,80)"/>
<path d="M0,0 L2,0 L2,1 L1,1 L1,2 L0,2 L0,3 L-1,3 L-1,4 L-2,4 L-2,2 L-1,2 L-1,1 L0,1 Z " fill="#414042" transform="translate(40,60)"/>
<path d="M0,0 L6,0 L6,1 L0,1 Z " fill="#9CC1DD" transform="translate(74,90)"/>
<path d="M0,0 L6,0 L6,1 L0,1 Z " fill="#E5EFF6" transform="translate(82,56)"/>
<path d="M0,0 L6,0 L6,1 L0,1 Z " fill="#E5EFF6" transform="translate(39,56)"/>
<path d="M0,0 L2,0 L2,1 L1,1 L1,2 L0,2 L0,3 L-2,3 L-2,2 L-1,2 L-1,1 L0,1 Z " fill="#478CBF" transform="translate(25,36)"/>
<path d="M0,0 L1,0 L1,1 L0,1 Z " fill="#242736" opacity="0.78039217" transform="translate(114,127)"/>
<path d="M0,0 L1,0 L1,1 L0,1 Z " fill="#232834" opacity="0.81960785" transform="translate(127,114)"/>
<path d="M0,0 L1,0 L1,1 L0,1 Z " fill="#232635" opacity="0.827451" transform="translate(0,114)"/>
<path d="M0,0 L4,0 L4,1 L1,1 L1,2 L0,2 Z " fill="#478CBF" transform="translate(23,83)"/>
<path d="M0,0 L5,0 L5,1 L0,1 Z " fill="#787778" transform="translate(82,71)"/>
<path d="M0,0 L1,0 L1,5 L0,5 Z " fill="#A8C9E1" transform="translate(94,63)"/>
<path d="M0,0 L1,0 L1,5 L0,5 Z " fill="#A7C8E1" transform="translate(76,63)"/>
<path d="M0,0 L1,0 L1,5 L0,5 Z " fill="#A3C5DF" transform="translate(51,63)"/>
<path d="M0,0 L1,0 L1,5 L0,5 Z " fill="#ADCCE3" transform="translate(33,63)"/>
<path d="M0,0 L2,0 L2,1 L1,1 L1,2 L0,2 L0,3 L-1,3 L-1,1 L0,1 Z " fill="#FFFFFF" transform="translate(79,58)"/>
<path d="M0,0 L2,0 L2,1 L1,1 L1,2 L0,2 L0,3 L-1,3 L-1,1 L0,1 Z " fill="#FFFFFF" transform="translate(36,58)"/>
<path d="M0,0 L1,0 L1,5 L0,5 Z " fill="#3B5471" transform="translate(85,30)"/>
<path d="M0,0 L1,0 L1,5 L0,5 Z " fill="#3C5472" transform="translate(42,30)"/>
<path d="M0,0 L1,0 L1,1 L0,1 Z M1,1 L2,1 L2,2 L1,2 Z " fill="#222633" opacity="0.9372549" transform="translate(122,4)"/>
<path d="M0,0 L1,0 L1,1 L0,1 Z " fill="#232635" opacity="0.83137256" transform="translate(114,0)"/>
<path d="M0,0 L1,0 L1,1 L0,1 Z " fill="#232735" opacity="0.78431374" transform="translate(13,127)"/>
<path d="M0,0 L1,0 L1,1 L0,1 Z " fill="#222734" opacity="0.8352941" transform="translate(6,124)"/>
<path d="M0,0 L4,0 L4,1 L0,1 Z " fill="#343B4F" transform="translate(12,123)"/>
<path d="M0,0 L1,0 L1,1 L0,1 Z " fill="#212632" opacity="0.972549" transform="translate(2,119)"/>
<path d="M0,0 L4,0 L4,1 L0,1 Z " fill="#3A4A63" transform="translate(73,107)"/>
<path d="M0,0 L4,0 L4,1 L0,1 Z " fill="#447CA8" transform="translate(69,107)"/>
<path d="M0,0 L4,0 L4,1 L0,1 Z " fill="#4378A4" transform="translate(53,107)"/>
<path d="M0,0 L4,0 L4,1 L0,1 Z " fill="#4785B5" transform="translate(46,106)"/>
<path d="M0,0 L4,0 L4,1 L0,1 Z " fill="#A8C9E1" transform="translate(76,93)"/>
<path d="M0,0 L4,0 L4,1 L0,1 Z " fill="#F6FAFC" transform="translate(72,93)"/>
<path d="M0,0 L4,0 L4,1 L0,1 Z " fill="#9BC1DC" transform="translate(44,93)"/>
<path d="M0,0 L4,0 L4,1 L0,1 Z " fill="#68A1CA" transform="translate(84,89)"/>
<path d="M0,0 L4,0 L4,1 L0,1 Z " fill="#5A97C6" transform="translate(40,89)"/>
<path d="M0,0 L1,0 L1,4 L0,4 Z " fill="#609BC7" transform="translate(36,85)"/>
<path d="M0,0 L1,0 L1,4 L0,4 Z " fill="#F5F9FC" transform="translate(88,82)"/>
<path d="M0,0 L1,0 L1,4 L0,4 Z " fill="#F2F7FB" transform="translate(39,82)"/>
<path d="M0,0 L4,0 L4,1 L0,1 Z " fill="#75A8CF" transform="translate(91,84)"/>
<path d="M0,0 L4,0 L4,1 L0,1 Z " fill="#5788B0" transform="translate(101,83)"/>
<path d="M0,0 L4,0 L4,1 L0,1 Z " fill="#FAFCFE" transform="translate(27,83)"/>
<path d="M0,0 L4,0 L4,1 L0,1 Z " fill="#DEEBF4" transform="translate(89,81)"/>
<path d="M0,0 L4,0 L4,1 L0,1 Z " fill="#CCDFED" transform="translate(35,81)"/>
<path d="M0,0 L1,0 L1,4 L0,4 Z " fill="#40465A" transform="translate(22,80)"/>
<path d="M0,0 L4,0 L4,1 L0,1 Z " fill="#B4D0E5" transform="translate(97,80)"/>
<path d="M0,0 L4,0 L4,1 L0,1 Z " fill="#4A8EC0" transform="translate(30,80)"/>
<path d="M0,0 L4,0 L4,1 L0,1 Z " fill="#90BAD8" transform="translate(26,80)"/>
<path d="M0,0 L4,0 L4,1 L0,1 Z " fill="#82B1D3" transform="translate(83,74)"/>
<path d="M0,0 L4,0 L4,1 L0,1 Z " fill="#82B1D3" transform="translate(40,74)"/>
<path d="M0,0 L1,0 L1,4 L0,4 Z " fill="#878788" transform="translate(90,64)"/>
<path d="M0,0 L1,0 L1,4 L0,4 Z " fill="#838284" transform="translate(37,64)"/>
<path d="M0,0 L4,0 L4,1 L0,1 Z " fill="#3C5A79" transform="translate(59,28)"/>
<path d="M0,0 L1,0 L1,1 L0,1 Z " fill="#232735" opacity="0.8235294" transform="translate(127,13)"/>
<path d="M0,0 L1,0 L1,1 L0,1 Z " fill="#232635" opacity="0.83137256" transform="translate(0,13)"/>
<path d="M0,0 L4,0 L4,1 L0,1 Z " fill="#353C51" transform="translate(12,4)"/>
<path d="M0,0 L1,0 L1,1 L0,1 Z " fill="#222734" opacity="0.8666667" transform="translate(6,3)"/>
<path d="M0,0 L1,0 L1,1 L0,1 Z " fill="#202532" opacity="0.9764706" transform="translate(119,2)"/>
<path d="M0,0 L1,0 L1,1 L0,1 Z " fill="#232635" opacity="0.83137256" transform="translate(13,0)"/>
<path d="M0,0 L1,0 L1,1 L0,1 Z " fill="#212532" opacity="0.9254902" transform="translate(4,122)"/>
<path d="M0,0 L1,0 L1,3 L0,3 Z " fill="#BED6E8" transform="translate(71,90)"/>
<path d="M0,0 L1,0 L1,3 L0,3 Z " fill="#BAD4E7" transform="translate(56,90)"/>
<path d="M0,0 L1,0 L1,3 L0,3 Z " fill="#374055" transform="translate(105,84)"/>
<path d="M0,0 L1,0 L1,3 L0,3 Z " fill="#384258" transform="translate(22,84)"/>
<path d="M0,0 L3,0 L3,1 L0,1 Z " fill="#89B5D6" transform="translate(33,84)"/>
<path d="M0,0 L3,0 L3,1 L0,1 Z " fill="#D7E6F1" transform="translate(98,83)"/>
<path d="M0,0 L1,0 L1,3 L0,3 Z " fill="#FFFFFF" transform="translate(77,64)"/>
<path d="M0,0 L1,0 L1,3 L0,3 Z " fill="#FFFFFF" transform="translate(50,64)"/>
<path d="M0,0 L1,0 L1,3 L0,3 Z " fill="#4378A3" transform="translate(85,27)"/>
<path d="M0,0 L1,0 L1,3 L0,3 Z " fill="#447AA6" transform="translate(42,27)"/>
<path d="M0,0 L1,0 L1,3 L0,3 Z " fill="#4584B3" transform="translate(85,24)"/>
<path d="M0,0 L1,0 L1,3 L0,3 Z " fill="#4685B6" transform="translate(42,24)"/>
<path d="M0,0 L3,0 L3,1 L0,1 Z " fill="#457EAB" transform="translate(73,20)"/>
<path d="M0,0 L1,0 L1,1 L0,1 Z M-1,1 L0,1 L0,3 L-1,3 Z " fill="#373F54" transform="translate(73,19)"/>
<path d="M0,0 L1,0 L1,1 L0,1 Z " fill="#212632" opacity="0.011764706" transform="translate(117,127)"/>
<path d="M0,0 L1,0 L1,1 L0,1 Z " fill="#222633" opacity="0.9372549" transform="translate(15,127)"/>
<path d="M0,0 L1,0 L1,1 L0,1 Z " fill="#262D3D" opacity="0.30980393" transform="translate(11,127)"/>
<path d="M0,0 L1,0 L1,1 L0,1 Z " fill="#242937" opacity="0.654902" transform="translate(9,126)"/>
<path d="M0,0 L2,0 L2,1 L0,1 Z " fill="#222734" transform="translate(115,123)"/>
<path d="M0,0 L2,0 L2,1 L0,1 Z " fill="#2F3547" transform="translate(12,123)"/>
<path d="M0,0 L2,0 L2,1 L0,1 Z " fill="#363D51" transform="translate(10,122)"/>
<path d="M0,0 L1,0 L1,1 L0,1 Z " fill="#282E39" opacity="0.02745098" transform="translate(127,117)"/>
<path d="M0,0 L1,0 L1,1 L0,1 Z " fill="#262C3A" opacity="0.03529412" transform="translate(0,117)"/>
<path d="M0,0 L1,0 L1,2 L0,2 Z " fill="#232735" transform="translate(123,115)"/>
<path d="M0,0 L1,0 L1,2 L0,2 Z " fill="#232835" transform="translate(4,115)"/>
<path d="M0,0 L1,0 L1,2 L0,2 Z " fill="#303648" transform="translate(123,113)"/>
<path d="M0,0 L1,0 L1,2 L0,2 Z " fill="#303649" transform="translate(4,113)"/>
<path d="M0,0 L2,0 L2,1 L0,1 Z " fill="#374157" transform="translate(63,108)"/>
<path d="M0,0 L2,0 L2,1 L0,1 Z " fill="#3E5F80" transform="translate(73,107)"/>
<path d="M0,0 L2,0 L2,1 L0,1 Z " fill="#4582B1" transform="translate(67,107)"/>
<path d="M0,0 L2,0 L2,1 L0,1 Z " fill="#457FAD" transform="translate(57,107)"/>
<path d="M0,0 L2,0 L2,1 L0,1 Z " fill="#416A8F" transform="translate(53,107)"/>
<path d="M0,0 L2,0 L2,1 L0,1 Z " fill="#3C5572" transform="translate(51,107)"/>
<path d="M0,0 L2,0 L2,1 L0,1 Z " fill="#38475E" transform="translate(81,106)"/>
<path d="M0,0 L2,0 L2,1 L0,1 Z " fill="#416D92" transform="translate(79,106)"/>
<path d="M0,0 L2,0 L2,1 L0,1 Z " fill="#406C93" transform="translate(46,106)"/>
<path d="M0,0 L2,0 L2,1 L0,1 Z " fill="#3E5D7E" transform="translate(84,105)"/>
<path d="M0,0 L2,0 L2,1 L0,1 Z " fill="#427098" transform="translate(42,105)"/>
<path d="M0,0 L2,0 L2,1 L0,1 Z " fill="#38465C" transform="translate(88,104)"/>
<path d="M0,0 L2,0 L2,1 L0,1 Z " fill="#4681AF" transform="translate(39,104)"/>
<path d="M0,0 L2,0 L2,1 L0,1 Z " fill="#373F55" transform="translate(91,103)"/>
<path d="M0,0 L2,0 L2,1 L0,1 Z " fill="#374157" transform="translate(93,102)"/>
<path d="M0,0 L2,0 L2,1 L0,1 Z " fill="#4686B6" transform="translate(34,102)"/>
<path d="M0,0 L2,0 L2,1 L0,1 Z " fill="#373E53" transform="translate(95,101)"/>
<path d="M0,0 L1,0 L1,2 L0,2 Z " fill="#373F54" transform="translate(103,93)"/>
<path d="M0,0 L1,0 L1,2 L0,2 Z " fill="#374055" transform="translate(24,93)"/>
<path d="M0,0 L2,0 L2,1 L0,1 Z " fill="#5896C4" transform="translate(84,93)"/>
<path d="M0,0 L2,0 L2,1 L0,1 Z " fill="#8EB8D8" transform="translate(80,93)"/>
<path d="M0,0 L2,0 L2,1 L0,1 Z " fill="#C2D9EA" transform="translate(76,93)"/>
<path d="M0,0 L2,0 L2,1 L0,1 Z " fill="#E9F1F8" transform="translate(52,93)"/>
<path d="M0,0 L2,0 L2,1 L0,1 Z " fill="#B5D1E5" transform="translate(48,93)"/>
<path d="M0,0 L2,0 L2,1 L0,1 Z " fill="#81B0D3" transform="translate(44,93)"/>
<path d="M0,0 L2,0 L2,1 L0,1 Z " fill="#669FCA" transform="translate(42,93)"/>
<path d="M0,0 L2,0 L2,1 L0,1 Z " fill="#EBF3F8" transform="translate(38,92)"/>
<path d="M0,0 L1,0 L1,2 L0,2 Z " fill="#3A4F6A" transform="translate(104,90)"/>
<path d="M0,0 L1,0 L1,2 L0,2 Z " fill="#3B506D" transform="translate(23,90)"/>
<path d="M0,0 L2,0 L2,1 L0,1 Z " fill="#ECF3F9" transform="translate(80,90)"/>
<path d="M0,0 L2,0 L2,1 L0,1 Z " fill="#D1E2EF" transform="translate(78,90)"/>
<path d="M0,0 L2,0 L2,1 L0,1 Z " fill="#C4DAEB" transform="translate(48,90)"/>
<path d="M0,0 L2,0 L2,1 L0,1 Z " fill="#DEEBF4" transform="translate(46,90)"/>
<path d="M0,0 L1,0 L1,2 L0,2 Z " fill="#488CBF" transform="translate(36,89)"/>
<path d="M0,0 L1,0 L1,2 L0,2 Z " fill="#8AB6D6" transform="translate(74,88)"/>
<path d="M0,0 L1,0 L1,2 L0,2 Z " fill="#8DB8D7" transform="translate(53,88)"/>
<path d="M0,0 L2,0 L2,1 L0,1 Z " fill="#75A9CF" transform="translate(40,89)"/>
<path d="M0,0 L1,0 L1,2 L0,2 Z " fill="#5494C3" transform="translate(57,87)"/>
<path d="M0,0 L1,0 L1,2 L0,2 Z " fill="#75A9CF" transform="translate(91,85)"/>
<path d="M0,0 L2,0 L2,1 L0,1 Z " fill="#7DAED2" transform="translate(57,86)"/>
<path d="M0,0 L1,0 L1,2 L0,2 Z " fill="#79ABD0" transform="translate(36,85)"/>
<path d="M0,0 L1,0 L1,2 L0,2 Z " fill="#D5E5F1" transform="translate(73,84)"/>
<path d="M0,0 L1,0 L1,2 L0,2 Z " fill="#D8E7F2" transform="translate(54,84)"/>
<path d="M0,0 L2,0 L2,1 L0,1 Z " fill="#5090BF" transform="translate(95,84)"/>
<path d="M0,0 L2,0 L2,1 L0,1 Z " fill="#9AC0DC" transform="translate(91,84)"/>
<path d="M0,0 L2,0 L2,1 L0,1 Z " fill="#81A5C2" transform="translate(101,83)"/>
<path d="M0,0 L1,0 L1,2 L0,2 Z " fill="#DBE9F3" transform="translate(88,82)"/>
<path d="M0,0 L2,0 L2,1 L0,1 Z " fill="#FAFCFD" transform="translate(55,83)"/>
<path d="M0,0 L1,0 L1,2 L0,2 Z " fill="#D8E7F2" transform="translate(39,82)"/>
<path d="M0,0 L2,0 L2,1 L0,1 Z " fill="#D8E7F2" transform="translate(27,83)"/>
<path d="M0,0 L2,0 L2,1 L0,1 Z " fill="#A2BED5" transform="translate(25,83)"/>
<path d="M0,0 L1,0 L1,2 L0,2 Z " fill="#3A4156" transform="translate(105,80)"/>
<path d="M0,0 L2,0 L2,1 L0,1 Z " fill="#BBD4E7" transform="translate(89,81)"/>
<path d="M0,0 L2,0 L2,1 L0,1 Z " fill="#D8E7F2" transform="translate(101,80)"/>
<path d="M0,0 L2,0 L2,1 L0,1 Z " fill="#91BAD9" transform="translate(97,80)"/>
<path d="M0,0 L2,0 L2,1 L0,1 Z " fill="#6DA4CC" transform="translate(95,80)"/>
<path d="M0,0 L2,0 L2,1 L0,1 Z " fill="#6DA4CC" transform="translate(30,80)"/>
<path d="M0,0 L2,0 L2,1 L0,1 Z " fill="#B4D0E5" transform="translate(26,80)"/>
<path d="M0,0 L2,0 L2,1 L0,1 Z " fill="#D8E7F2" transform="translate(24,80)"/>
<path d="M0,0 L2,0 L2,1 L0,1 Z " fill="#639EC9" transform="translate(63,75)"/>
<path d="M0,0 L2,0 L2,1 L0,1 Z " fill="#82B1D3" transform="translate(83,74)"/>
<path d="M0,0 L2,0 L2,1 L0,1 Z " fill="#488CBF" transform="translate(44,74)"/>
<path d="M0,0 L2,0 L2,1 L0,1 Z " fill="#82B1D4" transform="translate(40,74)"/>
<path d="M0,0 L2,0 L2,1 L0,1 Z " fill="#4D90C1" transform="translate(89,73)"/>
<path d="M0,0 L2,0 L2,1 L0,1 Z " fill="#E8F1F7" transform="translate(81,73)"/>
<path d="M0,0 L2,0 L2,1 L0,1 Z " fill="#4D90C1" transform="translate(46,73)"/>
<path d="M0,0 L2,0 L2,1 L0,1 Z " fill="#EAF2F8" transform="translate(38,73)"/>
<path d="M0,0 L2,0 L2,1 L0,1 Z " fill="#818182" transform="translate(82,71)"/>
<path d="M0,0 L2,0 L2,1 L0,1 Z " fill="#ACABAC" transform="translate(44,71)"/>
<path d="M0,0 L2,0 L2,1 L0,1 Z " fill="#777678" transform="translate(41,71)"/>
<path d="M0,0 L1,0 L1,2 L0,2 Z " fill="#C6C6C6" transform="translate(78,65)"/>
<path d="M0,0 L1,0 L1,2 L0,2 Z " fill="#CAC9CA" transform="translate(49,65)"/>
<path d="M0,0 L1,0 L1,2 L0,2 Z " fill="#B1CFE4" transform="translate(94,63)"/>
<path d="M0,0 L1,0 L1,2 L0,2 Z " fill="#B0CEE4" transform="translate(76,63)"/>
<path d="M0,0 L1,0 L1,2 L0,2 Z " fill="#F5F9FC" transform="translate(66,63)"/>
<path d="M0,0 L1,0 L1,2 L0,2 Z " fill="#F8FBFD" transform="translate(61,63)"/>
<path d="M0,0 L1,0 L1,2 L0,2 Z " fill="#ACCBE2" transform="translate(51,63)"/>
<path d="M0,0 L1,0 L1,2 L0,2 Z " fill="#B6D1E6" transform="translate(33,63)"/>
<path d="M0,0 L1,0 L1,2 L0,2 Z " fill="#424143" transform="translate(89,62)"/>
<path d="M0,0 L2,0 L2,1 L0,1 Z " fill="#424143" transform="translate(80,61)"/>
<path d="M0,0 L2,0 L2,1 L0,1 Z " fill="#96BDDA" transform="translate(63,61)"/>
<path d="M0,0 L2,0 L2,1 L0,1 Z " fill="#434244" transform="translate(82,60)"/>
<path d="M0,0 L2,0 L2,1 L0,1 Z " fill="#575658" transform="translate(40,60)"/>
<path d="M0,0 L2,0 L2,1 L0,1 Z " fill="#F1F1F1" transform="translate(84,59)"/>
<path d="M0,0 L2,0 L2,1 L0,1 Z " fill="#F8F8F8" transform="translate(43,59)"/>
<path d="M0,0 L1,0 L1,2 L0,2 Z " fill="#373F54" transform="translate(105,55)"/>
<path d="M0,0 L2,0 L2,1 L0,1 Z " fill="#4D90C1" transform="translate(88,56)"/>
<path d="M0,0 L2,0 L2,1 L0,1 Z " fill="#BCD5E8" transform="translate(82,56)"/>
<path d="M0,0 L2,0 L2,1 L0,1 Z " fill="#4D90C1" transform="translate(45,56)"/>
<path d="M0,0 L2,0 L2,1 L0,1 Z " fill="#BED6E8" transform="translate(39,56)"/>
<path d="M0,0 L1,0 L1,2 L0,2 Z " fill="#373F54" transform="translate(108,50)"/>
<path d="M0,0 L1,0 L1,2 L0,2 Z " fill="#373F54" transform="translate(19,50)"/>
<path d="M0,0 L1,0 L1,2 L0,2 Z " fill="#3E6083" transform="translate(110,46)"/>
<path d="M0,0 L1,0 L1,2 L0,2 Z " fill="#3F6185" transform="translate(17,46)"/>
<path d="M0,0 L2,0 L2,1 L0,1 Z " fill="#3D5A7A" transform="translate(93,40)"/>
<path d="M0,0 L2,0 L2,1 L0,1 Z " fill="#416B91" transform="translate(33,40)"/>
<path d="M0,0 L2,0 L2,1 L0,1 Z " fill="#373E53" transform="translate(28,37)"/>
<path d="M0,0 L2,0 L2,1 L0,1 Z " fill="#417098" transform="translate(101,36)"/>
<path d="M0,0 L2,0 L2,1 L0,1 Z " fill="#373F54" transform="translate(88,36)"/>
<path d="M0,0 L2,0 L2,1 L0,1 Z " fill="#3E6082" transform="translate(25,36)"/>
<path d="M0,0 L1,0 L1,2 L0,2 Z " fill="#3F6487" transform="translate(85,30)"/>
<path d="M0,0 L1,0 L1,2 L0,2 Z " fill="#3F6588" transform="translate(42,30)"/>
<path d="M0,0 L1,0 L1,2 L0,2 Z " fill="#4685B4" transform="translate(69,27)"/>
<path d="M0,0 L2,0 L2,1 L0,1 Z " fill="#394860" transform="translate(67,28)"/>
<path d="M0,0 L2,0 L2,1 L0,1 Z " fill="#3E6082" transform="translate(63,28)"/>
<path d="M0,0 L2,0 L2,1 L0,1 Z " fill="#3A4D67" transform="translate(59,28)"/>
<path d="M0,0 L1,0 L1,2 L0,2 Z " fill="#4787B8" transform="translate(70,25)"/>
<path d="M0,0 L1,0 L1,2 L0,2 Z " fill="#4686B6" transform="translate(57,25)"/>
<path d="M0,0 L1,0 L1,2 L0,2 Z " fill="#4788B9" transform="translate(71,23)"/>
<path d="M0,0 L2,0 L2,1 L0,1 Z " fill="#384258" transform="translate(84,23)"/>
<path d="M0,0 L2,0 L2,1 L0,1 Z " fill="#4580AD" transform="translate(43,23)"/>
<path d="M0,0 L2,0 L2,1 L0,1 Z " fill="#38465C" transform="translate(79,21)"/>
<path d="M0,0 L2,0 L2,1 L0,1 Z " fill="#4376A1" transform="translate(48,21)"/>
<path d="M0,0 L2,0 L2,1 L0,1 Z " fill="#374056" transform="translate(76,20)"/>
<path d="M0,0 L2,0 L2,1 L0,1 Z " fill="#457CA8" transform="translate(53,20)"/>
<path d="M0,0 L2,0 L2,1 L0,1 Z " fill="#40688D" transform="translate(51,20)"/>
<path d="M0,0 L1,0 L1,1 L0,1 Z " fill="#222532" opacity="0.96862745" transform="translate(127,15)"/>
<path d="M0,0 L1,0 L1,1 L0,1 Z " fill="#212632" opacity="0.972549" transform="translate(0,15)"/>
<path d="M0,0 L1,0 L1,2 L0,2 Z " fill="#303649" transform="translate(123,12)"/>
<path d="M0,0 L1,0 L1,2 L0,2 Z " fill="#303749" transform="translate(4,12)"/>
<path d="M0,0 L1,0 L1,1 L0,1 Z " fill="#292C3C" opacity="0.3647059" transform="translate(127,11)"/>
<path d="M0,0 L1,0 L1,1 L0,1 Z " fill="#282A3A" opacity="0.3764706" transform="translate(0,11)"/>
<path d="M0,0 L1,0 L1,1 L0,1 Z " fill="#252936" opacity="0.69411767" transform="translate(126,9)"/>
<path d="M0,0 L1,0 L1,1 L0,1 Z " fill="#232936" opacity="0.7058824" transform="translate(1,9)"/>
<path d="M0,0 L1,0 L1,1 L0,1 Z " fill="#252A37" opacity="0.61960787" transform="translate(125,7)"/>
<path d="M0,0 L1,0 L1,1 L0,1 Z " fill="#242836" opacity="0.6392157" transform="translate(2,7)"/>
<path d="M0,0 L2,0 L2,1 L0,1 Z " fill="#232835" transform="translate(115,4)"/>
<path d="M0,0 L2,0 L2,1 L0,1 Z " fill="#31374A" transform="translate(12,4)"/>
<path d="M0,0 L1,0 L1,1 L0,1 Z " fill="#242836" opacity="0.6392157" transform="translate(7,2)"/>
<path d="M0,0 L1,0 L1,1 L0,1 Z " fill="#232836" opacity="0.7019608" transform="translate(9,1)"/>
<path d="M0,0 L1,0 L1,1 L0,1 Z " fill="#282B3B" opacity="0.039215688" transform="translate(117,0)"/>
<path d="M0,0 L1,0 L1,1 L0,1 Z " fill="#222532" opacity="0.96862745" transform="translate(15,0)"/>
<path d="M0,0 L1,0 L1,1 L0,1 Z " fill="#282A3A" opacity="0.3764706" transform="translate(11,0)"/>
<path d="M0,0 L1,0 L1,1 L0,1 Z " fill="#272D3B" opacity="0.30588236" transform="translate(116,127)"/>
<path d="M0,0 L1,0 L1,1 L0,1 Z " fill="#242937" opacity="0.63529414" transform="translate(115,127)"/>
<path d="M0,0 L1,0 L1,1 L0,1 Z " fill="#222734" opacity="0.8627451" transform="translate(113,127)"/>
<path d="M0,0 L1,0 L1,1 L0,1 Z " fill="#222633" opacity="0.9372549" transform="translate(112,127)"/>
<path d="M0,0 L1,0 L1,1 L0,1 Z " fill="#222734" opacity="0.8666667" transform="translate(14,127)"/>
<path d="M0,0 L1,0 L1,1 L0,1 Z " fill="#242836" opacity="0.6392157" transform="translate(12,127)"/>
<path d="M0,0 L1,0 L1,1 L0,1 Z " fill="#212632" opacity="0.011764706" transform="translate(10,127)"/>
<path d="M0,0 L1,0 L1,1 L0,1 Z " fill="#27313B" opacity="0.101960786" transform="translate(119,126)"/>
<path d="M0,0 L1,0 L1,1 L0,1 Z " fill="#252936" opacity="0.64705884" transform="translate(118,126)"/>
<path d="M0,0 L1,0 L1,1 L0,1 Z " fill="#212632" opacity="0.94509804" transform="translate(117,126)"/>
<path d="M0,0 L1,0 L1,1 L0,1 Z " fill="#212632" opacity="0.9490196" transform="translate(10,126)"/>
<path d="M0,0 L1,0 L1,1 L0,1 Z " fill="#2F2F42" opacity="0.105882354" transform="translate(8,126)"/>
<path d="M0,0 L1,0 L1,1 L0,1 Z " fill="#232635" opacity="0.02745098" transform="translate(121,125)"/>
<path d="M0,0 L1,0 L1,1 L0,1 Z " fill="#262A38" opacity="0.57254905" transform="translate(120,125)"/>
<path d="M0,0 L1,0 L1,1 L0,1 Z " fill="#212631" opacity="0.9647059" transform="translate(119,125)"/>
<path d="M0,0 L1,0 L1,1 L0,1 Z " fill="#212532" opacity="0.9647059" transform="translate(8,125)"/>
<path d="M0,0 L1,0 L1,1 L0,1 Z " fill="#242B39" opacity="0.5803922" transform="translate(7,125)"/>
<path d="M0,0 L1,0 L1,1 L0,1 Z " fill="#222734" opacity="0.03529412" transform="translate(6,125)"/>
<path d="M0,0 L1,0 L1,1 L0,1 Z " fill="#2D2D40" opacity="0.10980392" transform="translate(122,124)"/>
<path d="M0,0 L1,0 L1,1 L0,1 Z " fill="#232635" opacity="0.827451" transform="translate(121,124)"/>
<path d="M0,0 L1,0 L1,1 L0,1 Z " fill="#2A333B" opacity="0.11764706" transform="translate(5,124)"/>
<path d="M0,0 L1,0 L1,1 L0,1 Z " fill="#28313E" opacity="0.22352941" transform="translate(123,123)"/>
<path d="M0,0 L1,0 L1,1 L0,1 Z " fill="#232733" opacity="0.91764706" transform="translate(122,123)"/>
<path d="M0,0 L1,0 L1,1 L0,1 Z " fill="#292E3E" transform="translate(115,123)"/>
<path d="M0,0 L1,0 L1,1 L0,1 Z " fill="#2F3547" transform="translate(114,123)"/>
<path d="M0,0 L1,0 L1,1 L0,1 Z " fill="#32384B" transform="translate(113,123)"/>
<path d="M0,0 L1,0 L1,1 L0,1 Z " fill="#343B4F" transform="translate(112,123)"/>
<path d="M0,0 L1,0 L1,1 L0,1 Z " fill="#32384B" transform="translate(14,123)"/>
<path d="M0,0 L1,0 L1,1 L0,1 Z " fill="#292E3E" transform="translate(12,123)"/>
<path d="M0,0 L1,0 L1,1 L0,1 Z " fill="#222734" transform="translate(11,123)"/>
<path d="M0,0 L1,0 L1,1 L0,1 Z " fill="#212633" opacity="0.92156863" transform="translate(5,123)"/>
<path d="M0,0 L1,0 L1,1 L0,1 Z " fill="#2C3039" opacity="0.22745098" transform="translate(4,123)"/>
<path d="M0,0 L1,0 L1,1 L0,1 Z " fill="#2A333B" opacity="0.11764706" transform="translate(124,122)"/>
<path d="M0,0 L1,0 L1,1 L0,1 Z " fill="#212633" opacity="0.92156863" transform="translate(123,122)"/>
<path d="M0,0 L1,0 L1,1 L0,1 Z " fill="#222734" transform="translate(118,122)"/>
<path d="M0,0 L1,0 L1,1 L0,1 Z " fill="#2D3344" transform="translate(117,122)"/>
<path d="M0,0 L1,0 L1,1 L0,1 Z " fill="#363D51" transform="translate(116,122)"/>
<path d="M0,0 L1,0 L1,1 L0,1 Z " fill="#2D3344" transform="translate(10,122)"/>
<path d="M0,0 L1,0 L1,1 L0,1 Z " fill="#222734" transform="translate(9,122)"/>
<path d="M0,0 L1,0 L1,1 L0,1 Z " fill="#262E3E" opacity="0.12941177" transform="translate(3,122)"/>
<path d="M0,0 L1,0 L1,1 L0,1 Z " fill="#252A37" opacity="0.02745098" transform="translate(125,121)"/>
<path d="M0,0 L1,0 L1,1 L0,1 Z " fill="#222734" opacity="0.8352941" transform="translate(124,121)"/>
<path d="M0,0 L1,0 L1,1 L0,1 Z " fill="#262B3A" transform="translate(119,121)"/>
<path d="M0,0 L1,0 L1,1 L0,1 Z " fill="#353B50" transform="translate(118,121)"/>
<path d="M0,0 L1,0 L1,1 L0,1 Z " fill="#353C50" transform="translate(9,121)"/>
<path d="M0,0 L1,0 L1,1 L0,1 Z " fill="#272C3A" transform="translate(8,121)"/>
<path d="M0,0 L1,0 L1,1 L0,1 Z " fill="#222734" opacity="0.84313726" transform="translate(3,121)"/>
<path d="M0,0 L1,0 L1,1 L0,1 Z " fill="#252938" opacity="0.03529412" transform="translate(2,121)"/>
<path d="M0,0 L1,0 L1,1 L0,1 Z " fill="#252A37" opacity="0.5921569" transform="translate(125,120)"/>
<path d="M0,0 L1,0 L1,1 L0,1 Z " fill="#292F3F" transform="translate(120,120)"/>
<path d="M0,0 L1,0 L1,1 L0,1 Z " fill="#292F3F" transform="translate(7,120)"/>
<path d="M0,0 L1,0 L1,1 L0,1 Z " fill="#252938" opacity="0.60784316" transform="translate(2,120)"/>
<path d="M0,0 L1,0 L1,1 L0,1 Z " fill="#2A333B" opacity="0.11764706" transform="translate(126,119)"/>
<path d="M0,0 L1,0 L1,1 L0,1 Z " fill="#222532" opacity="0.96862745" transform="translate(125,119)"/>
<path d="M0,0 L1,0 L1,1 L0,1 Z " fill="#272C3A" transform="translate(121,119)"/>
<path d="M0,0 L1,0 L1,1 L0,1 Z " fill="#272C3B" transform="translate(6,119)"/>
<path d="M0,0 L1,0 L1,1 L0,1 Z " fill="#262E3E" opacity="0.12941177" transform="translate(1,119)"/>
<path d="M0,0 L1,0 L1,1 L0,1 Z " fill="#232835" opacity="0.67058825" transform="translate(126,118)"/>
<path d="M0,0 L1,0 L1,1 L0,1 Z " fill="#232734" transform="translate(122,118)"/>
<path d="M0,0 L1,0 L1,1 L0,1 Z " fill="#353C50" transform="translate(121,118)"/>
<path d="M0,0 L1,0 L1,1 L0,1 Z " fill="#353C50" transform="translate(6,118)"/>
<path d="M0,0 L1,0 L1,1 L0,1 Z " fill="#232735" transform="translate(5,118)"/>
<path d="M0,0 L1,0 L1,1 L0,1 Z " fill="#242936" opacity="0.68235296" transform="translate(1,118)"/>
<path d="M0,0 L1,0 L1,1 L0,1 Z " fill="#212532" opacity="0.9607843" transform="translate(126,117)"/>
<path d="M0,0 L1,0 L1,1 L0,1 Z " fill="#2D3344" transform="translate(122,117)"/>
<path d="M0,0 L1,0 L1,1 L0,1 Z " fill="#2E3345" transform="translate(5,117)"/>
<path d="M0,0 L1,0 L1,1 L0,1 Z " fill="#212532" opacity="0.9647059" transform="translate(1,117)"/>
<path d="M0,0 L1,0 L1,1 L0,1 Z " fill="#282E39" opacity="0.34901962" transform="translate(127,116)"/>
<path d="M0,0 L1,0 L1,1 L0,1 Z " fill="#262C3A" opacity="0.36078432" transform="translate(0,116)"/>
<path d="M0,0 L1,0 L1,1 L0,1 Z " fill="#232835" opacity="0.67058825" transform="translate(127,115)"/>
<path d="M0,0 L1,0 L1,1 L0,1 Z " fill="#292F3F" transform="translate(123,115)"/>
<path d="M0,0 L1,0 L1,1 L0,1 Z " fill="#2A2F3F" transform="translate(4,115)"/>
<path d="M0,0 L1,0 L1,1 L0,1 Z " fill="#242936" opacity="0.68235296" transform="translate(0,115)"/>
<path d="M0,0 L1,0 L1,1 L0,1 Z " fill="#222733" opacity="0.8980392" transform="translate(127,113)"/>
<path d="M0,0 L1,0 L1,1 L0,1 Z " fill="#33394D" transform="translate(123,113)"/>
<path d="M0,0 L1,0 L1,1 L0,1 Z " fill="#33394D" transform="translate(4,113)"/>
<path d="M0,0 L1,0 L1,1 L0,1 Z " fill="#222633" opacity="0.9019608" transform="translate(0,113)"/>
<path d="M0,0 L1,0 L1,1 L0,1 Z " fill="#222532" opacity="0.96862745" transform="translate(127,112)"/>
<path d="M0,0 L1,0 L1,1 L0,1 Z " fill="#353C50" transform="translate(123,112)"/>
<path d="M0,0 L1,0 L1,1 L0,1 Z " fill="#353C50" transform="translate(4,112)"/>
<path d="M0,0 L1,0 L1,1 L0,1 Z " fill="#222532" opacity="0.96862745" transform="translate(0,112)"/>
<path d="M0,0 L1,0 L1,1 L0,1 Z " fill="#373E53" transform="translate(65,108)"/>
<path d="M0,0 L1,0 L1,1 L0,1 Z " fill="#373E53" transform="translate(62,108)"/>
<path d="M0,0 L1,0 L1,1 L0,1 Z " fill="#384056" transform="translate(77,107)"/>
<path d="M0,0 L1,0 L1,1 L0,1 Z " fill="#3C5572" transform="translate(75,107)"/>
<path d="M0,0 L1,0 L1,1 L0,1 Z " fill="#40698E" transform="translate(73,107)"/>
<path d="M0,0 L1,0 L1,1 L0,1 Z " fill="#42739D" transform="translate(72,107)"/>
<path d="M0,0 L1,0 L1,1 L0,1 Z " fill="#4378A4" transform="translate(71,107)"/>
<path d="M0,0 L1,0 L1,1 L0,1 Z " fill="#457FAD" transform="translate(69,107)"/>
<path d="M0,0 L1,0 L1,1 L0,1 Z " fill="#4686B6" transform="translate(67,107)"/>
<path d="M0,0 L1,0 L1,1 L0,1 Z " fill="#4789BB" transform="translate(66,107)"/>
<path d="M0,0 L1,0 L1,1 L0,1 Z " fill="#488CBF" transform="translate(65,107)"/>
<path d="M0,0 L1,0 L1,1 L0,1 Z " fill="#488CBF" transform="translate(62,107)"/>
<path d="M0,0 L1,0 L1,1 L0,1 Z " fill="#4789BB" transform="translate(61,107)"/>
<path d="M0,0 L1,0 L1,1 L0,1 Z " fill="#4582B1" transform="translate(59,107)"/>
<path d="M0,0 L1,0 L1,1 L0,1 Z " fill="#447CA8" transform="translate(57,107)"/>
<path d="M0,0 L1,0 L1,1 L0,1 Z " fill="#42739D" transform="translate(55,107)"/>
<path d="M0,0 L1,0 L1,1 L0,1 Z " fill="#3E6081" transform="translate(53,107)"/>
<path d="M0,0 L1,0 L1,1 L0,1 Z " fill="#3A4A64" transform="translate(51,107)"/>
<path d="M0,0 L1,0 L1,1 L0,1 Z " fill="#374056" transform="translate(50,107)"/>
<path d="M0,0 L1,0 L1,1 L0,1 Z " fill="#3D5979" transform="translate(81,106)"/>
<path d="M0,0 L1,0 L1,1 L0,1 Z " fill="#447AA6" transform="translate(79,106)"/>
<path d="M0,0 L1,0 L1,1 L0,1 Z " fill="#4684B5" transform="translate(78,106)"/>
<path d="M0,0 L1,0 L1,1 L0,1 Z " fill="#488CBF" transform="translate(77,106)"/>
<path d="M0,0 L1,0 L1,1 L0,1 Z " fill="#447AA6" transform="translate(48,106)"/>
<path d="M0,0 L1,0 L1,1 L0,1 Z " fill="#3C5A79" transform="translate(46,106)"/>
<path d="M0,0 L1,0 L1,1 L0,1 Z " fill="#39465F" transform="translate(45,106)"/>
<path d="M0,0 L1,0 L1,1 L0,1 Z " fill="#3A4A63" transform="translate(86,105)"/>
<path d="M0,0 L1,0 L1,1 L0,1 Z " fill="#417097" transform="translate(84,105)"/>
<path d="M0,0 L1,0 L1,1 L0,1 Z " fill="#4582B2" transform="translate(83,105)"/>
<path d="M0,0 L1,0 L1,1 L0,1 Z " fill="#4683B2" transform="translate(44,105)"/>
<path d="M0,0 L1,0 L1,1 L0,1 Z " fill="#3E5D7F" transform="translate(42,105)"/>
<path d="M0,0 L1,0 L1,1 L0,1 Z " fill="#3A4A64" transform="translate(41,105)"/>
<path d="M0,0 L1,0 L1,1 L0,1 Z " fill="#3E6285" transform="translate(88,104)"/>
<path d="M0,0 L1,0 L1,1 L0,1 Z " fill="#4580AE" transform="translate(87,104)"/>
<path d="M0,0 L1,0 L1,1 L0,1 Z " fill="#3F6386" transform="translate(39,104)"/>
<path d="M0,0 L1,0 L1,1 L0,1 Z " fill="#38455D" transform="translate(38,104)"/>
<path d="M0,0 L1,0 L1,1 L0,1 Z " fill="#3C5675" transform="translate(91,103)"/>
<path d="M0,0 L1,0 L1,1 L0,1 Z " fill="#43759E" transform="translate(90,103)"/>
<path d="M0,0 L1,0 L1,1 L0,1 Z " fill="#4275A0" transform="translate(37,103)"/>
<path d="M0,0 L1,0 L1,1 L0,1 Z " fill="#3C5776" transform="translate(36,103)"/>
<path d="M0,0 L1,0 L1,1 L0,1 Z " fill="#373F55" transform="translate(35,103)"/>
<path d="M0,0 L1,0 L1,1 L0,1 Z " fill="#3F6387" transform="translate(93,102)"/>
<path d="M0,0 L1,0 L1,1 L0,1 Z " fill="#4686B6" transform="translate(92,102)"/>
<path d="M0,0 L1,0 L1,1 L0,1 Z " fill="#3F6487" transform="translate(34,102)"/>
<path d="M0,0 L1,0 L1,1 L0,1 Z " fill="#384258" transform="translate(33,102)"/>
<path d="M0,0 L1,0 L1,1 L0,1 Z " fill="#3E5D7E" transform="translate(95,101)"/>
<path d="M0,0 L1,0 L1,1 L0,1 Z " fill="#4684B5" transform="translate(94,101)"/>
<path d="M0,0 L1,0 L1,1 L0,1 Z " fill="#4685B6" transform="translate(33,101)"/>
<path d="M0,0 L1,0 L1,1 L0,1 Z " fill="#3E5E80" transform="translate(32,101)"/>
<path d="M0,0 L1,0 L1,1 L0,1 Z " fill="#373F54" transform="translate(31,101)"/>
<path d="M0,0 L1,0 L1,1 L0,1 Z " fill="#394861" transform="translate(97,100)"/>
<path d="M0,0 L1,0 L1,1 L0,1 Z " fill="#4379A4" transform="translate(96,100)"/>
<path d="M0,0 L1,0 L1,1 L0,1 Z " fill="#447BA6" transform="translate(31,100)"/>
<path d="M0,0 L1,0 L1,1 L0,1 Z " fill="#394962" transform="translate(30,100)"/>
<path d="M0,0 L1,0 L1,1 L0,1 Z " fill="#3D5776" transform="translate(98,99)"/>
<path d="M0,0 L1,0 L1,1 L0,1 Z " fill="#4788BA" transform="translate(97,99)"/>
<path d="M0,0 L1,0 L1,1 L0,1 Z " fill="#4789BB" transform="translate(30,99)"/>
<path d="M0,0 L1,0 L1,1 L0,1 Z " fill="#3C5A79" transform="translate(29,99)"/>
<path d="M0,0 L1,0 L1,1 L0,1 Z " fill="#3F6385" transform="translate(99,98)"/>
<path d="M0,0 L1,0 L1,1 L0,1 Z " fill="#488CBF" transform="translate(98,98)"/>
<path d="M0,0 L1,0 L1,1 L0,1 Z " fill="#3F6489" transform="translate(28,98)"/>
<path d="M0,0 L1,0 L1,1 L0,1 Z " fill="#3F6589" transform="translate(100,97)"/>
<path d="M0,0 L1,0 L1,1 L0,1 Z " fill="#40688D" transform="translate(27,97)"/>
<path d="M0,0 L1,0 L1,1 L0,1 Z " fill="#3E5E7E" transform="translate(101,96)"/>
<path d="M0,0 L1,0 L1,1 L0,1 Z " fill="#3E5F81" transform="translate(26,96)"/>
<path d="M0,0 L1,0 L1,1 L0,1 Z " fill="#3A4C67" transform="translate(102,95)"/>
<path d="M0,0 L1,0 L1,1 L0,1 Z " fill="#488BBD" transform="translate(101,95)"/>
<path d="M0,0 L1,0 L1,1 L0,1 Z " fill="#3A4E69" transform="translate(25,95)"/>
<path d="M0,0 L1,0 L1,1 L0,1 Z " fill="#447DAA" transform="translate(102,94)"/>
<path d="M0,0 L1,0 L1,1 L0,1 Z " fill="#457FAD" transform="translate(25,94)"/>
<path d="M0,0 L1,0 L1,1 L0,1 Z " fill="#3D5B7B" transform="translate(103,93)"/>
<path d="M0,0 L1,0 L1,1 L0,1 Z " fill="#4D90C1" transform="translate(86,93)"/>
<path d="M0,0 L1,0 L1,1 L0,1 Z " fill="#669FCA" transform="translate(84,93)"/>
<path d="M0,0 L1,0 L1,1 L0,1 Z " fill="#80B0D3" transform="translate(82,93)"/>
<path d="M0,0 L1,0 L1,1 L0,1 Z " fill="#9BC1DC" transform="translate(80,93)"/>
<path d="M0,0 L1,0 L1,1 L0,1 Z " fill="#B5D1E5" transform="translate(78,93)"/>
<path d="M0,0 L1,0 L1,1 L0,1 Z " fill="#CFE1EE" transform="translate(76,93)"/>
<path d="M0,0 L1,0 L1,1 L0,1 Z " fill="#DCE9F3" transform="translate(75,93)"/>
<path d="M0,0 L1,0 L1,1 L0,1 Z " fill="#E9F1F8" transform="translate(74,93)"/>
<path d="M0,0 L1,0 L1,1 L0,1 Z " fill="#D1E2EF" transform="translate(72,93)"/>
<path d="M0,0 L1,0 L1,1 L0,1 Z " fill="#5192C2" transform="translate(71,93)"/>
<path d="M0,0 L1,0 L1,1 L0,1 Z " fill="#4F91C2" transform="translate(56,93)"/>
<path d="M0,0 L1,0 L1,1 L0,1 Z " fill="#CBDFED" transform="translate(55,93)"/>
<path d="M0,0 L1,0 L1,1 L0,1 Z " fill="#F4F8FB" transform="translate(54,93)"/>
<path d="M0,0 L1,0 L1,1 L0,1 Z " fill="#DCE9F3" transform="translate(52,93)"/>
<path d="M0,0 L1,0 L1,1 L0,1 Z " fill="#C2D9EA" transform="translate(50,93)"/>
<path d="M0,0 L1,0 L1,1 L0,1 Z " fill="#A8C9E1" transform="translate(48,93)"/>
<path d="M0,0 L1,0 L1,1 L0,1 Z " fill="#8EB8D8" transform="translate(46,93)"/>
<path d="M0,0 L1,0 L1,1 L0,1 Z " fill="#74A8CE" transform="translate(44,93)"/>
<path d="M0,0 L1,0 L1,1 L0,1 Z " fill="#5896C4" transform="translate(42,93)"/>
<path d="M0,0 L1,0 L1,1 L0,1 Z " fill="#4D90C1" transform="translate(41,93)"/>
<path d="M0,0 L1,0 L1,1 L0,1 Z " fill="#3D5D7F" transform="translate(24,93)"/>
<path d="M0,0 L1,0 L1,1 L0,1 Z " fill="#447EAB" transform="translate(103,92)"/>
<path d="M0,0 L1,0 L1,1 L0,1 Z " fill="#71A6CD" transform="translate(90,92)"/>
<path d="M0,0 L1,0 L1,1 L0,1 Z " fill="#D3E3F0" transform="translate(89,92)"/>
<path d="M0,0 L1,0 L1,1 L0,1 Z " fill="#EBF3F8" transform="translate(88,92)"/>
<path d="M0,0 L1,0 L1,1 L0,1 Z " fill="#F8FBFD" transform="translate(87,92)"/>
<path d="M0,0 L1,0 L1,1 L0,1 Z " fill="#9CC1DC" transform="translate(71,92)"/>
<path d="M0,0 L1,0 L1,1 L0,1 Z " fill="#98BFDB" transform="translate(56,92)"/>
<path d="M0,0 L1,0 L1,1 L0,1 Z " fill="#F8FBFD" transform="translate(40,92)"/>
<path d="M0,0 L1,0 L1,1 L0,1 Z " fill="#D3E3F0" transform="translate(38,92)"/>
<path d="M0,0 L1,0 L1,1 L0,1 Z " fill="#73A8CE" transform="translate(37,92)"/>
<path d="M0,0 L1,0 L1,1 L0,1 Z " fill="#4580AE" transform="translate(24,92)"/>
<path d="M0,0 L1,0 L1,1 L0,1 Z " fill="#373E53" transform="translate(23,92)"/>
<path d="M0,0 L1,0 L1,1 L0,1 Z " fill="#DEEAF4" transform="translate(90,91)"/>
<path d="M0,0 L1,0 L1,1 L0,1 Z " fill="#E1ECF5" transform="translate(37,91)"/>
<path d="M0,0 L1,0 L1,1 L0,1 Z " fill="#3F6487" transform="translate(104,90)"/>
<path d="M0,0 L1,0 L1,1 L0,1 Z " fill="#FBFDFE" transform="translate(90,90)"/>
<path d="M0,0 L1,0 L1,1 L0,1 Z " fill="#FAFCFD" transform="translate(82,90)"/>
<path d="M0,0 L1,0 L1,1 L0,1 Z " fill="#DFEBF4" transform="translate(80,90)"/>
<path d="M0,0 L1,0 L1,1 L0,1 Z " fill="#C4DAEB" transform="translate(78,90)"/>
<path d="M0,0 L1,0 L1,1 L0,1 Z " fill="#B7D2E6" transform="translate(77,90)"/>
<path d="M0,0 L1,0 L1,1 L0,1 Z " fill="#AACAE1" transform="translate(76,90)"/>
<path d="M0,0 L1,0 L1,1 L0,1 Z " fill="#C7DCEC" transform="translate(74,90)"/>
<path d="M0,0 L1,0 L1,1 L0,1 Z " fill="#D9E7F2" transform="translate(71,90)"/>
<path d="M0,0 L1,0 L1,1 L0,1 Z " fill="#D6E5F1" transform="translate(56,90)"/>
<path d="M0,0 L1,0 L1,1 L0,1 Z " fill="#C9DEEC" transform="translate(53,90)"/>
<path d="M0,0 L1,0 L1,1 L0,1 Z " fill="#9CC1DC" transform="translate(52,90)"/>
<path d="M0,0 L1,0 L1,1 L0,1 Z " fill="#B7D2E6" transform="translate(50,90)"/>
<path d="M0,0 L1,0 L1,1 L0,1 Z " fill="#D1E2EF" transform="translate(48,90)"/>
<path d="M0,0 L1,0 L1,1 L0,1 Z " fill="#ECF3F9" transform="translate(46,90)"/>
<path d="M0,0 L1,0 L1,1 L0,1 Z " fill="#F9FBFD" transform="translate(45,90)"/>
<path d="M0,0 L1,0 L1,1 L0,1 Z " fill="#FEFFFF" transform="translate(37,90)"/>
<path d="M0,0 L1,0 L1,1 L0,1 Z " fill="#40668A" transform="translate(23,90)"/>
<path d="M0,0 L1,0 L1,1 L0,1 Z " fill="#4378A2" transform="translate(104,89)"/>
<path d="M0,0 L1,0 L1,1 L0,1 Z " fill="#4F91C2" transform="translate(91,89)"/>
<path d="M0,0 L1,0 L1,1 L0,1 Z " fill="#9CC1DD" transform="translate(87,89)"/>
<path d="M0,0 L1,0 L1,1 L0,1 Z " fill="#75A9CF" transform="translate(86,89)"/>
<path d="M0,0 L1,0 L1,1 L0,1 Z " fill="#5A98C6" transform="translate(84,89)"/>
<path d="M0,0 L1,0 L1,1 L0,1 Z " fill="#4E90C1" transform="translate(83,89)"/>
<path d="M0,0 L1,0 L1,1 L0,1 Z " fill="#F4F8FB" transform="translate(71,89)"/>
<path d="M0,0 L1,0 L1,1 L0,1 Z " fill="#F0F6FA" transform="translate(56,89)"/>
<path d="M0,0 L1,0 L1,1 L0,1 Z " fill="#4E90C1" transform="translate(44,89)"/>
<path d="M0,0 L1,0 L1,1 L0,1 Z " fill="#68A1CA" transform="translate(42,89)"/>
<path d="M0,0 L1,0 L1,1 L0,1 Z " fill="#9AC0DC" transform="translate(40,89)"/>
<path d="M0,0 L1,0 L1,1 L0,1 Z " fill="#5292C3" transform="translate(36,89)"/>
<path d="M0,0 L1,0 L1,1 L0,1 Z " fill="#4479A4" transform="translate(23,89)"/>
<path d="M0,0 L1,0 L1,1 L0,1 Z " fill="#4682B1" transform="translate(104,88)"/>
<path d="M0,0 L1,0 L1,1 L0,1 Z " fill="#639EC9" transform="translate(87,88)"/>
<path d="M0,0 L1,0 L1,1 L0,1 Z " fill="#6EA4CC" transform="translate(74,88)"/>
<path d="M0,0 L1,0 L1,1 L0,1 Z " fill="#5695C4" transform="translate(70,88)"/>
<path d="M0,0 L1,0 L1,1 L0,1 Z " fill="#72A7CE" transform="translate(53,88)"/>
<path d="M0,0 L1,0 L1,1 L0,1 Z " fill="#609BC7" transform="translate(40,88)"/>
<path d="M0,0 L1,0 L1,1 L0,1 Z " fill="#4584B3" transform="translate(23,88)"/>
<path d="M0,0 L1,0 L1,1 L0,1 Z " fill="#4688B9" transform="translate(104,87)"/>
<path d="M0,0 L1,0 L1,1 L0,1 Z " fill="#68A1CA" transform="translate(91,87)"/>
<path d="M0,0 L1,0 L1,1 L0,1 Z " fill="#5594C3" transform="translate(87,87)"/>
<path d="M0,0 L1,0 L1,1 L0,1 Z " fill="#5393C3" transform="translate(74,87)"/>
<path d="M0,0 L1,0 L1,1 L0,1 Z " fill="#72A7CE" transform="translate(70,87)"/>
<path d="M0,0 L1,0 L1,1 L0,1 Z " fill="#6EA4CC" transform="translate(57,87)"/>
<path d="M0,0 L1,0 L1,1 L0,1 Z " fill="#5594C4" transform="translate(53,87)"/>
<path d="M0,0 L1,0 L1,1 L0,1 Z " fill="#5292C2" transform="translate(40,87)"/>
<path d="M0,0 L1,0 L1,1 L0,1 Z " fill="#6CA3CC" transform="translate(36,87)"/>
<path d="M0,0 L1,0 L1,1 L0,1 Z " fill="#478ABB" transform="translate(23,87)"/>
<path d="M0,0 L1,0 L1,1 L0,1 Z " fill="#373F54" transform="translate(105,86)"/>
<path d="M0,0 L1,0 L1,1 L0,1 Z " fill="#4A8EC0" transform="translate(87,86)"/>
<path d="M0,0 L1,0 L1,1 L0,1 Z " fill="#F0F6FA" transform="translate(73,86)"/>
<path d="M0,0 L1,0 L1,1 L0,1 Z " fill="#ACCBE2" transform="translate(70,86)"/>
<path d="M0,0 L1,0 L1,1 L0,1 Z " fill="#AACAE1" transform="translate(57,86)"/>
<path d="M0,0 L1,0 L1,1 L0,1 Z " fill="#F4F8FB" transform="translate(54,86)"/>
<path d="M0,0 L1,0 L1,1 L0,1 Z " fill="#488CBF" transform="translate(40,86)"/>
<path d="M0,0 L1,0 L1,1 L0,1 Z " fill="#FEFFFF" transform="translate(39,86)"/>
<path d="M0,0 L1,0 L1,1 L0,1 Z " fill="#374056" transform="translate(22,86)"/>
<path d="M0,0 L1,0 L1,1 L0,1 Z " fill="#82B1D4" transform="translate(91,85)"/>
<path d="M0,0 L1,0 L1,1 L0,1 Z " fill="#86B3D5" transform="translate(36,85)"/>
<path d="M0,0 L1,0 L1,1 L0,1 Z " fill="#384056" transform="translate(105,84)"/>
<path d="M0,0 L1,0 L1,1 L0,1 Z " fill="#6099C4" transform="translate(95,84)"/>
<path d="M0,0 L1,0 L1,1 L0,1 Z " fill="#89B5D6" transform="translate(93,84)"/>
<path d="M0,0 L1,0 L1,1 L0,1 Z " fill="#CADEED" transform="translate(91,84)"/>
<path d="M0,0 L1,0 L1,1 L0,1 Z " fill="#E8F1F7" transform="translate(88,84)"/>
<path d="M0,0 L1,0 L1,1 L0,1 Z " fill="#B3CFE5" transform="translate(73,84)"/>
<path d="M0,0 L1,0 L1,1 L0,1 Z " fill="#FFFFFF" transform="translate(55,84)"/>
<path d="M0,0 L1,0 L1,1 L0,1 Z " fill="#B7D2E6" transform="translate(54,84)"/>
<path d="M0,0 L1,0 L1,1 L0,1 Z " fill="#E5EFF6" transform="translate(39,84)"/>
<path d="M0,0 L1,0 L1,1 L0,1 Z " fill="#CBDFED" transform="translate(36,84)"/>
<path d="M0,0 L1,0 L1,1 L0,1 Z " fill="#9BC1DC" transform="translate(35,84)"/>
<path d="M0,0 L1,0 L1,1 L0,1 Z " fill="#76A9CF" transform="translate(33,84)"/>
<path d="M0,0 L1,0 L1,1 L0,1 Z " fill="#6099C4" transform="translate(32,84)"/>
<path d="M0,0 L1,0 L1,1 L0,1 Z " fill="#5090BF" transform="translate(31,84)"/>
<path d="M0,0 L1,0 L1,1 L0,1 Z " fill="#6894B6" transform="translate(103,83)"/>
<path d="M0,0 L1,0 L1,1 L0,1 Z " fill="#A0BDD4" transform="translate(101,83)"/>
<path d="M0,0 L1,0 L1,1 L0,1 Z " fill="#C3D8E8" transform="translate(100,83)"/>
<path d="M0,0 L1,0 L1,1 L0,1 Z " fill="#E9F1F8" transform="translate(98,83)"/>
<path d="M0,0 L1,0 L1,1 L0,1 Z " fill="#FAFCFE" transform="translate(97,83)"/>
<path d="M0,0 L1,0 L1,1 L0,1 Z " fill="#5E9AC7" transform="translate(73,83)"/>
<path d="M0,0 L1,0 L1,1 L0,1 Z " fill="#D8E7F2" transform="translate(72,83)"/>
<path d="M0,0 L1,0 L1,1 L0,1 Z " fill="#D9E7F2" transform="translate(55,83)"/>
<path d="M0,0 L1,0 L1,1 L0,1 Z " fill="#619CC8" transform="translate(54,83)"/>
<path d="M0,0 L1,0 L1,1 L0,1 Z " fill="#E9F1F8" transform="translate(29,83)"/>
<path d="M0,0 L1,0 L1,1 L0,1 Z " fill="#C4D9E9" transform="translate(27,83)"/>
<path d="M0,0 L1,0 L1,1 L0,1 Z " fill="#83A6C4" transform="translate(25,83)"/>
<path d="M0,0 L1,0 L1,1 L0,1 Z " fill="#6A95B7" transform="translate(24,83)"/>
<path d="M0,0 L1,0 L1,1 L0,1 Z " fill="#588AB1" transform="translate(23,83)"/>
<path d="M0,0 L1,0 L1,1 L0,1 Z " fill="#3B445B" transform="translate(22,83)"/>
<path d="M0,0 L1,0 L1,1 L0,1 Z " fill="#3B4256" transform="translate(105,82)"/>
<path d="M0,0 L1,0 L1,1 L0,1 Z " fill="#FFFFFF" transform="translate(89,82)"/>
<path d="M0,0 L1,0 L1,1 L0,1 Z " fill="#AECCE3" transform="translate(88,82)"/>
<path d="M0,0 L1,0 L1,1 L0,1 Z " fill="#AACAE2" transform="translate(39,82)"/>
<path d="M0,0 L1,0 L1,1 L0,1 Z " fill="#41485C" transform="translate(22,82)"/>
<path d="M0,0 L1,0 L1,1 L0,1 Z " fill="#F0F6FA" transform="translate(93,81)"/>
<path d="M0,0 L1,0 L1,1 L0,1 Z " fill="#CCDFED" transform="translate(91,81)"/>
<path d="M0,0 L1,0 L1,1 L0,1 Z " fill="#97BEDB" transform="translate(89,81)"/>
<path d="M0,0 L1,0 L1,1 L0,1 Z " fill="#4E90C1" transform="translate(88,81)"/>
<path d="M0,0 L1,0 L1,1 L0,1 Z " fill="#4E90C1" transform="translate(39,81)"/>
<path d="M0,0 L1,0 L1,1 L0,1 Z " fill="#95BDDA" transform="translate(38,81)"/>
<path d="M0,0 L1,0 L1,1 L0,1 Z " fill="#BAD4E7" transform="translate(37,81)"/>
<path d="M0,0 L1,0 L1,1 L0,1 Z " fill="#DEEBF4" transform="translate(35,81)"/>
<path d="M0,0 L1,0 L1,1 L0,1 Z " fill="#F0F6FA" transform="translate(34,81)"/>
<path d="M0,0 L1,0 L1,1 L0,1 Z " fill="#FEFFFF" transform="translate(33,81)"/>
<path d="M0,0 L1,0 L1,1 L0,1 Z " fill="#394055" transform="translate(105,80)"/>
<path d="M0,0 L1,0 L1,1 L0,1 Z " fill="#EBF2F8" transform="translate(103,80)"/>
<path d="M0,0 L1,0 L1,1 L0,1 Z " fill="#C6DCEB" transform="translate(101,80)"/>
<path d="M0,0 L1,0 L1,1 L0,1 Z " fill="#A3C5DF" transform="translate(99,80)"/>
<path d="M0,0 L1,0 L1,1 L0,1 Z " fill="#7FAFD2" transform="translate(97,80)"/>
<path d="M0,0 L1,0 L1,1 L0,1 Z " fill="#5B99C6" transform="translate(95,80)"/>
<path d="M0,0 L1,0 L1,1 L0,1 Z " fill="#4A8EC0" transform="translate(94,80)"/>
<path d="M0,0 L1,0 L1,1 L0,1 Z " fill="#5B98C6" transform="translate(32,80)"/>
<path d="M0,0 L1,0 L1,1 L0,1 Z " fill="#7FAFD2" transform="translate(30,80)"/>
<path d="M0,0 L1,0 L1,1 L0,1 Z " fill="#A2C5DF" transform="translate(28,80)"/>
<path d="M0,0 L1,0 L1,1 L0,1 Z " fill="#C6DCEB" transform="translate(26,80)"/>
<path d="M0,0 L1,0 L1,1 L0,1 Z " fill="#EAF2F8" transform="translate(24,80)"/>
<path d="M0,0 L1,0 L1,1 L0,1 Z " fill="#FBFDFE" transform="translate(23,80)"/>
<path d="M0,0 L1,0 L1,1 L0,1 Z " fill="#3E4559" transform="translate(22,80)"/>
<path d="M0,0 L1,0 L1,1 L0,1 Z " fill="#374056" transform="translate(22,79)"/>
<path d="M0,0 L1,0 L1,1 L0,1 Z " fill="#498DBF" transform="translate(65,75)"/>
<path d="M0,0 L1,0 L1,1 L0,1 Z " fill="#659FC9" transform="translate(63,75)"/>
<path d="M0,0 L1,0 L1,1 L0,1 Z " fill="#498DC0" transform="translate(62,75)"/>
<path d="M0,0 L1,0 L1,1 L0,1 Z " fill="#669FCA" transform="translate(87,74)"/>
<path d="M0,0 L1,0 L1,1 L0,1 Z " fill="#90BAD8" transform="translate(85,74)"/>
<path d="M0,0 L1,0 L1,1 L0,1 Z " fill="#669FCA" transform="translate(83,74)"/>
<path d="M0,0 L1,0 L1,1 L0,1 Z " fill="#5D9AC6" transform="translate(66,74)"/>
<path d="M0,0 L1,0 L1,1 L0,1 Z " fill="#DBE9F3" transform="translate(65,74)"/>
<path d="M0,0 L1,0 L1,1 L0,1 Z " fill="#DEEAF4" transform="translate(62,74)"/>
<path d="M0,0 L1,0 L1,1 L0,1 Z " fill="#5F9BC7" transform="translate(61,74)"/>
<path d="M0,0 L1,0 L1,1 L0,1 Z " fill="#669FC9" transform="translate(44,74)"/>
<path d="M0,0 L1,0 L1,1 L0,1 Z " fill="#91BAD9" transform="translate(42,74)"/>
<path d="M0,0 L1,0 L1,1 L0,1 Z " fill="#68A0CA" transform="translate(40,74)"/>
<path d="M0,0 L1,0 L1,1 L0,1 Z " fill="#488CBF" transform="translate(39,74)"/>
<path d="M0,0 L1,0 L1,1 L0,1 Z " fill="#9CC1DC" transform="translate(89,73)"/>
<path d="M0,0 L1,0 L1,1 L0,1 Z " fill="#E8F1F7" transform="translate(88,73)"/>
<path d="M0,0 L1,0 L1,1 L0,1 Z " fill="#9CC1DC" transform="translate(81,73)"/>
<path d="M0,0 L1,0 L1,1 L0,1 Z " fill="#4D90C1" transform="translate(80,73)"/>
<path d="M0,0 L1,0 L1,1 L0,1 Z " fill="#C7DCEC" transform="translate(66,73)"/>
<path d="M0,0 L1,0 L1,1 L0,1 Z " fill="#CBDEED" transform="translate(61,73)"/>
<path d="M0,0 L1,0 L1,1 L0,1 Z " fill="#9AC0DC" transform="translate(46,73)"/>
<path d="M0,0 L1,0 L1,1 L0,1 Z " fill="#E8F1F7" transform="translate(45,73)"/>
<path d="M0,0 L1,0 L1,1 L0,1 Z " fill="#9FC3DE" transform="translate(38,73)"/>
<path d="M0,0 L1,0 L1,1 L0,1 Z " fill="#4E90C1" transform="translate(37,73)"/>
<path d="M0,0 L1,0 L1,1 L0,1 Z " fill="#68A0CA" transform="translate(91,72)"/>
<path d="M0,0 L1,0 L1,1 L0,1 Z " fill="#E7F0F7" transform="translate(90,72)"/>
<path d="M0,0 L1,0 L1,1 L0,1 Z " fill="#FFFFFF" transform="translate(82,72)"/>
<path d="M0,0 L1,0 L1,1 L0,1 Z " fill="#E6F0F7" transform="translate(80,72)"/>
<path d="M0,0 L1,0 L1,1 L0,1 Z " fill="#67A0CA" transform="translate(79,72)"/>
<path d="M0,0 L1,0 L1,1 L0,1 Z " fill="#F1F6FA" transform="translate(66,72)"/>
<path d="M0,0 L1,0 L1,1 L0,1 Z " fill="#F4F8FB" transform="translate(61,72)"/>
<path d="M0,0 L1,0 L1,1 L0,1 Z " fill="#669FC9" transform="translate(48,72)"/>
<path d="M0,0 L1,0 L1,1 L0,1 Z " fill="#E5EFF6" transform="translate(47,72)"/>
<path d="M0,0 L1,0 L1,1 L0,1 Z " fill="#EAF2F8" transform="translate(37,72)"/>
<path d="M0,0 L1,0 L1,1 L0,1 Z " fill="#6BA2CB" transform="translate(36,72)"/>
<path d="M0,0 L1,0 L1,1 L0,1 Z " fill="#6DA4CC" transform="translate(92,71)"/>
<path d="M0,0 L1,0 L1,1 L0,1 Z " fill="#F7FAFC" transform="translate(91,71)"/>
<path d="M0,0 L1,0 L1,1 L0,1 Z " fill="#E9E9E9" transform="translate(87,71)"/>
<path d="M0,0 L1,0 L1,1 L0,1 Z " fill="#9F9E9F" transform="translate(86,71)"/>
<path d="M0,0 L1,0 L1,1 L0,1 Z " fill="#616061" transform="translate(84,71)"/>
<path d="M0,0 L1,0 L1,1 L0,1 Z " fill="#ACABAC" transform="translate(82,71)"/>
<path d="M0,0 L1,0 L1,1 L0,1 Z " fill="#F8F8F8" transform="translate(81,71)"/>
<path d="M0,0 L1,0 L1,1 L0,1 Z " fill="#F7FAFC" transform="translate(79,71)"/>
<path d="M0,0 L1,0 L1,1 L0,1 Z " fill="#6CA3CC" transform="translate(78,71)"/>
<path d="M0,0 L1,0 L1,1 L0,1 Z " fill="#6AA2CB" transform="translate(49,71)"/>
<path d="M0,0 L1,0 L1,1 L0,1 Z " fill="#F6FAFC" transform="translate(48,71)"/>
<path d="M0,0 L1,0 L1,1 L0,1 Z " fill="#F9F9F9" transform="translate(46,71)"/>
<path d="M0,0 L1,0 L1,1 L0,1 Z " fill="#828183" transform="translate(44,71)"/>
<path d="M0,0 L1,0 L1,1 L0,1 Z " fill="#605F61" transform="translate(43,71)"/>
<path d="M0,0 L1,0 L1,1 L0,1 Z " fill="#9E9D9E" transform="translate(41,71)"/>
<path d="M0,0 L1,0 L1,1 L0,1 Z " fill="#E6E6E6" transform="translate(40,71)"/>
<path d="M0,0 L1,0 L1,1 L0,1 Z " fill="#F9FBFD" transform="translate(36,71)"/>
<path d="M0,0 L1,0 L1,1 L0,1 Z " fill="#70A6CD" transform="translate(35,71)"/>
<path d="M0,0 L1,0 L1,1 L0,1 Z " fill="#5695C4" transform="translate(93,70)"/>
<path d="M0,0 L1,0 L1,1 L0,1 Z " fill="#ECF3F9" transform="translate(92,70)"/>
<path d="M0,0 L1,0 L1,1 L0,1 Z " fill="#B6B5B6" transform="translate(88,70)"/>
<path d="M0,0 L1,0 L1,1 L0,1 Z " fill="#4C4B4D" transform="translate(87,70)"/>
<path d="M0,0 L1,0 L1,1 L0,1 Z " fill="#5D5C5E" transform="translate(81,70)"/>
<path d="M0,0 L1,0 L1,1 L0,1 Z " fill="#D5D5D5" transform="translate(80,70)"/>
<path d="M0,0 L1,0 L1,1 L0,1 Z " fill="#ECF3F9" transform="translate(78,70)"/>
<path d="M0,0 L1,0 L1,1 L0,1 Z " fill="#5595C4" transform="translate(77,70)"/>
<path d="M0,0 L1,0 L1,1 L0,1 Z " fill="#5494C3" transform="translate(50,70)"/>
<path d="M0,0 L1,0 L1,1 L0,1 Z " fill="#EAF2F8" transform="translate(49,70)"/>
<path d="M0,0 L1,0 L1,1 L0,1 Z " fill="#D6D6D7" transform="translate(47,70)"/>
<path d="M0,0 L1,0 L1,1 L0,1 Z " fill="#5E5D5E" transform="translate(46,70)"/>
<path d="M0,0 L1,0 L1,1 L0,1 Z " fill="#49484A" transform="translate(40,70)"/>
<path d="M0,0 L1,0 L1,1 L0,1 Z " fill="#B2B1B2" transform="translate(39,70)"/>
<path d="M0,0 L1,0 L1,1 L0,1 Z " fill="#EFF5FA" transform="translate(35,70)"/>
<path d="M0,0 L1,0 L1,1 L0,1 Z " fill="#5997C5" transform="translate(34,70)"/>
<path d="M0,0 L1,0 L1,1 L0,1 Z " fill="#B0CEE4" transform="translate(93,69)"/>
<path d="M0,0 L1,0 L1,1 L0,1 Z " fill="#C1C0C1" transform="translate(89,69)"/>
<path d="M0,0 L1,0 L1,1 L0,1 Z " fill="#4B4A4C" transform="translate(80,69)"/>
<path d="M0,0 L1,0 L1,1 L0,1 Z " fill="#E8E8E8" transform="translate(79,69)"/>
<path d="M0,0 L1,0 L1,1 L0,1 Z " fill="#AFCDE3" transform="translate(77,69)"/>
<path d="M0,0 L1,0 L1,1 L0,1 Z " fill="#ABCAE2" transform="translate(50,69)"/>
<path d="M0,0 L1,0 L1,1 L0,1 Z " fill="#EAEAEA" transform="translate(48,69)"/>
<path d="M0,0 L1,0 L1,1 L0,1 Z " fill="#4C4B4D" transform="translate(47,69)"/>
<path d="M0,0 L1,0 L1,1 L0,1 Z " fill="#BCBBBC" transform="translate(38,69)"/>
<path d="M0,0 L1,0 L1,1 L0,1 Z " fill="#B6D1E6" transform="translate(34,69)"/>
<path d="M0,0 L1,0 L1,1 L0,1 Z " fill="#5192C2" transform="translate(94,68)"/>
<path d="M0,0 L1,0 L1,1 L0,1 Z " fill="#FBFDFE" transform="translate(93,68)"/>
<path d="M0,0 L1,0 L1,1 L0,1 Z " fill="#F1F0F1" transform="translate(90,68)"/>
<path d="M0,0 L1,0 L1,1 L0,1 Z " fill="#515052" transform="translate(89,68)"/>
<path d="M0,0 L1,0 L1,1 L0,1 Z " fill="#727273" transform="translate(79,68)"/>
<path d="M0,0 L1,0 L1,1 L0,1 Z " fill="#FAFCFE" transform="translate(77,68)"/>
<path d="M0,0 L1,0 L1,1 L0,1 Z " fill="#5192C2" transform="translate(76,68)"/>
<path d="M0,0 L1,0 L1,1 L0,1 Z " fill="#4F91C2" transform="translate(51,68)"/>
<path d="M0,0 L1,0 L1,1 L0,1 Z " fill="#F9FBFD" transform="translate(50,68)"/>
<path d="M0,0 L1,0 L1,1 L0,1 Z " fill="#767577" transform="translate(48,68)"/>
<path d="M0,0 L1,0 L1,1 L0,1 Z " fill="#4E4D4F" transform="translate(38,68)"/>
<path d="M0,0 L1,0 L1,1 L0,1 Z " fill="#EEEDEE" transform="translate(37,68)"/>
<path d="M0,0 L1,0 L1,1 L0,1 Z " fill="#FDFEFF" transform="translate(34,68)"/>
<path d="M0,0 L1,0 L1,1 L0,1 Z " fill="#5595C4" transform="translate(33,68)"/>
<path d="M0,0 L1,0 L1,1 L0,1 Z " fill="#86B3D5" transform="translate(94,67)"/>
<path d="M0,0 L1,0 L1,1 L0,1 Z " fill="#BBBABB" transform="translate(90,67)"/>
<path d="M0,0 L1,0 L1,1 L0,1 Z " fill="#EDEDED" transform="translate(78,67)"/>
<path d="M0,0 L1,0 L1,1 L0,1 Z " fill="#85B2D4" transform="translate(76,67)"/>
<path d="M0,0 L1,0 L1,1 L0,1 Z " fill="#81B0D3" transform="translate(51,67)"/>
<path d="M0,0 L1,0 L1,1 L0,1 Z " fill="#F0F0F0" transform="translate(49,67)"/>
<path d="M0,0 L1,0 L1,1 L0,1 Z " fill="#B6B5B6" transform="translate(37,67)"/>
<path d="M0,0 L1,0 L1,1 L0,1 Z " fill="#8BB7D7" transform="translate(33,67)"/>
<path d="M0,0 L1,0 L1,1 L0,1 Z " fill="#949395" transform="translate(90,66)"/>
<path d="M0,0 L1,0 L1,1 L0,1 Z " fill="#908F90" transform="translate(37,66)"/>
<path d="M0,0 L1,0 L1,1 L0,1 Z " fill="#BAD4E7" transform="translate(94,65)"/>
<path d="M0,0 L1,0 L1,1 L0,1 Z " fill="#B9B9BA" transform="translate(78,65)"/>
<path d="M0,0 L1,0 L1,1 L0,1 Z " fill="#B8D3E6" transform="translate(76,65)"/>
<path d="M0,0 L1,0 L1,1 L0,1 Z " fill="#B5D1E5" transform="translate(51,65)"/>
<path d="M0,0 L1,0 L1,1 L0,1 Z " fill="#BCBCBD" transform="translate(49,65)"/>
<path d="M0,0 L1,0 L1,1 L0,1 Z " fill="#BED7E9" transform="translate(33,65)"/>
<path d="M0,0 L1,0 L1,1 L0,1 Z " fill="#ADACAD" transform="translate(90,64)"/>
<path d="M0,0 L1,0 L1,1 L0,1 Z " fill="#DEDEDE" transform="translate(78,64)"/>
<path d="M0,0 L1,0 L1,1 L0,1 Z " fill="#E2E2E3" transform="translate(49,64)"/>
<path d="M0,0 L1,0 L1,1 L0,1 Z " fill="#A7A7A8" transform="translate(37,64)"/>
<path d="M0,0 L1,0 L1,1 L0,1 Z " fill="#9BC1DC" transform="translate(94,63)"/>
<path d="M0,0 L1,0 L1,1 L0,1 Z " fill="#DCDBDC" transform="translate(90,63)"/>
<path d="M0,0 L1,0 L1,1 L0,1 Z " fill="#525153" transform="translate(79,63)"/>
<path d="M0,0 L1,0 L1,1 L0,1 Z " fill="#FDFDFD" transform="translate(78,63)"/>
<path d="M0,0 L1,0 L1,1 L0,1 Z " fill="#9AC0DC" transform="translate(76,63)"/>
<path d="M0,0 L1,0 L1,1 L0,1 Z " fill="#D8E7F2" transform="translate(66,63)"/>
<path d="M0,0 L1,0 L1,1 L0,1 Z " fill="#DDEAF3" transform="translate(61,63)"/>
<path d="M0,0 L1,0 L1,1 L0,1 Z " fill="#96BDDA" transform="translate(51,63)"/>
<path d="M0,0 L1,0 L1,1 L0,1 Z " fill="#FEFEFE" transform="translate(49,63)"/>
<path d="M0,0 L1,0 L1,1 L0,1 Z " fill="#545355" transform="translate(48,63)"/>
<path d="M0,0 L1,0 L1,1 L0,1 Z " fill="#D7D7D7" transform="translate(37,63)"/>
<path d="M0,0 L1,0 L1,1 L0,1 Z " fill="#A0C4DE" transform="translate(33,63)"/>
<path d="M0,0 L1,0 L1,1 L0,1 Z " fill="#68A0CA" transform="translate(94,62)"/>
<path d="M0,0 L1,0 L1,1 L0,1 Z " fill="#929192" transform="translate(89,62)"/>
<path d="M0,0 L1,0 L1,1 L0,1 Z " fill="#C2C2C3" transform="translate(79,62)"/>
<path d="M0,0 L1,0 L1,1 L0,1 Z " fill="#67A0CA" transform="translate(76,62)"/>
<path d="M0,0 L1,0 L1,1 L0,1 Z " fill="#76A9CF" transform="translate(66,62)"/>
<path d="M0,0 L1,0 L1,1 L0,1 Z " fill="#F9FBFD" transform="translate(65,62)"/>
<path d="M0,0 L1,0 L1,1 L0,1 Z " fill="#FAFCFD" transform="translate(62,62)"/>
<path d="M0,0 L1,0 L1,1 L0,1 Z " fill="#7AACD1" transform="translate(61,62)"/>
<path d="M0,0 L1,0 L1,1 L0,1 Z " fill="#639DC8" transform="translate(51,62)"/>
<path d="M0,0 L1,0 L1,1 L0,1 Z " fill="#C6C6C6" transform="translate(48,62)"/>
<path d="M0,0 L1,0 L1,1 L0,1 Z " fill="#8D8C8D" transform="translate(38,62)"/>
<path d="M0,0 L1,0 L1,1 L0,1 Z " fill="#6EA4CC" transform="translate(33,62)"/>
<path d="M0,0 L1,0 L1,1 L0,1 Z " fill="#DDEAF3" transform="translate(93,61)"/>
<path d="M0,0 L1,0 L1,1 L0,1 Z " fill="#F8F8F8" transform="translate(89,61)"/>
<path d="M0,0 L1,0 L1,1 L0,1 Z " fill="#717072" transform="translate(88,61)"/>
<path d="M0,0 L1,0 L1,1 L0,1 Z " fill="#99999A" transform="translate(80,61)"/>
<path d="M0,0 L1,0 L1,1 L0,1 Z " fill="#DCE9F3" transform="translate(77,61)"/>
<path d="M0,0 L1,0 L1,1 L0,1 Z " fill="#5E9AC7" transform="translate(65,61)"/>
<path d="M0,0 L1,0 L1,1 L0,1 Z " fill="#97BEDB" transform="translate(63,61)"/>
<path d="M0,0 L1,0 L1,1 L0,1 Z " fill="#609BC7" transform="translate(62,61)"/>
<path d="M0,0 L1,0 L1,1 L0,1 Z " fill="#D8E7F2" transform="translate(50,61)"/>
<path d="M0,0 L1,0 L1,1 L0,1 Z " fill="#9C9B9C" transform="translate(47,61)"/>
<path d="M0,0 L1,0 L1,1 L0,1 Z " fill="#6E6D6F" transform="translate(39,61)"/>
<path d="M0,0 L1,0 L1,1 L0,1 Z " fill="#F6F6F6" transform="translate(38,61)"/>
<path d="M0,0 L1,0 L1,1 L0,1 Z " fill="#E1ECF5" transform="translate(34,61)"/>
<path d="M0,0 L1,0 L1,1 L0,1 Z " fill="#498DBF" transform="translate(33,61)"/>
<path d="M0,0 L1,0 L1,1 L0,1 Z " fill="#7AACD1" transform="translate(93,60)"/>
<path d="M0,0 L1,0 L1,1 L0,1 Z " fill="#ADACAD" transform="translate(87,60)"/>
<path d="M0,0 L1,0 L1,1 L0,1 Z " fill="#585759" transform="translate(86,60)"/>
<path d="M0,0 L1,0 L1,1 L0,1 Z " fill="#666567" transform="translate(82,60)"/>
<path d="M0,0 L1,0 L1,1 L0,1 Z " fill="#CECDCE" transform="translate(81,60)"/>
<path d="M0,0 L1,0 L1,1 L0,1 Z " fill="#79ABD0" transform="translate(77,60)"/>
<path d="M0,0 L1,0 L1,1 L0,1 Z " fill="#75A8CF" transform="translate(50,60)"/>
<path d="M0,0 L1,0 L1,1 L0,1 Z " fill="#CFCFCF" transform="translate(46,60)"/>
<path d="M0,0 L1,0 L1,1 L0,1 Z " fill="#666567" transform="translate(45,60)"/>
<path d="M0,0 L1,0 L1,1 L0,1 Z " fill="#434244" transform="translate(44,60)"/>
<path d="M0,0 L1,0 L1,1 L0,1 Z " fill="#AAA9AA" transform="translate(40,60)"/>
<path d="M0,0 L1,0 L1,1 L0,1 Z " fill="#FDFDFD" transform="translate(39,60)"/>
<path d="M0,0 L1,0 L1,1 L0,1 Z " fill="#7FAFD2" transform="translate(34,60)"/>
<path d="M0,0 L1,0 L1,1 L0,1 Z " fill="#ADCCE3" transform="translate(92,59)"/>
<path d="M0,0 L1,0 L1,1 L0,1 Z " fill="#DADADA" transform="translate(84,59)"/>
<path d="M0,0 L1,0 L1,1 L0,1 Z " fill="#F8F8F8" transform="translate(83,59)"/>
<path d="M0,0 L1,0 L1,1 L0,1 Z " fill="#ACCBE2" transform="translate(78,59)"/>
<path d="M0,0 L1,0 L1,1 L0,1 Z " fill="#A7C8E1" transform="translate(49,59)"/>
<path d="M0,0 L1,0 L1,1 L0,1 Z " fill="#D9D9DA" transform="translate(43,59)"/>
<path d="M0,0 L1,0 L1,1 L0,1 Z " fill="#F0F0F0" transform="translate(42,59)"/>
<path d="M0,0 L1,0 L1,1 L0,1 Z " fill="#B1CFE4" transform="translate(35,59)"/>
<path d="M0,0 L1,0 L1,1 L0,1 Z " fill="#498DC0" transform="translate(92,58)"/>
<path d="M0,0 L1,0 L1,1 L0,1 Z " fill="#B4D0E5" transform="translate(91,58)"/>
<path d="M0,0 L1,0 L1,1 L0,1 Z " fill="#B3CFE5" transform="translate(79,58)"/>
<path d="M0,0 L1,0 L1,1 L0,1 Z " fill="#498DBF" transform="translate(78,58)"/>
<path d="M0,0 L1,0 L1,1 L0,1 Z " fill="#498DBF" transform="translate(49,58)"/>
<path d="M0,0 L1,0 L1,1 L0,1 Z " fill="#B1CEE4" transform="translate(48,58)"/>
<path d="M0,0 L1,0 L1,1 L0,1 Z " fill="#B8D3E6" transform="translate(36,58)"/>
<path d="M0,0 L1,0 L1,1 L0,1 Z " fill="#4A8EC0" transform="translate(35,58)"/>
<path d="M0,0 L1,0 L1,1 L0,1 Z " fill="#8AB6D6" transform="translate(90,57)"/>
<path d="M0,0 L1,0 L1,1 L0,1 Z " fill="#EBF3F8" transform="translate(89,57)"/>
<path d="M0,0 L1,0 L1,1 L0,1 Z " fill="#EBF3F8" transform="translate(81,57)"/>
<path d="M0,0 L1,0 L1,1 L0,1 Z " fill="#8AB6D6" transform="translate(80,57)"/>
<path d="M0,0 L1,0 L1,1 L0,1 Z " fill="#88B4D5" transform="translate(47,57)"/>
<path d="M0,0 L1,0 L1,1 L0,1 Z " fill="#EBF2F8" transform="translate(46,57)"/>
<path d="M0,0 L1,0 L1,1 L0,1 Z " fill="#EDF4F9" transform="translate(38,57)"/>
<path d="M0,0 L1,0 L1,1 L0,1 Z " fill="#8DB8D7" transform="translate(37,57)"/>
<path d="M0,0 L1,0 L1,1 L0,1 Z " fill="#488CBF" transform="translate(36,57)"/>
<path d="M0,0 L1,0 L1,1 L0,1 Z " fill="#85B3D5" transform="translate(88,56)"/>
<path d="M0,0 L1,0 L1,1 L0,1 Z " fill="#BCD5E8" transform="translate(87,56)"/>
<path d="M0,0 L1,0 L1,1 L0,1 Z " fill="#D7E6F1" transform="translate(86,56)"/>
<path d="M0,0 L1,0 L1,1 L0,1 Z " fill="#D7E6F1" transform="translate(84,56)"/>
<path d="M0,0 L1,0 L1,1 L0,1 Z " fill="#85B2D4" transform="translate(82,56)"/>
<path d="M0,0 L1,0 L1,1 L0,1 Z " fill="#4D90C1" transform="translate(81,56)"/>
<path d="M0,0 L1,0 L1,1 L0,1 Z " fill="#85B2D4" transform="translate(45,56)"/>
<path d="M0,0 L1,0 L1,1 L0,1 Z " fill="#BCD5E8" transform="translate(44,56)"/>
<path d="M0,0 L1,0 L1,1 L0,1 Z " fill="#D7E6F1" transform="translate(43,56)"/>
<path d="M0,0 L1,0 L1,1 L0,1 Z " fill="#D8E7F2" transform="translate(41,56)"/>
<path d="M0,0 L1,0 L1,1 L0,1 Z " fill="#87B4D5" transform="translate(39,56)"/>
<path d="M0,0 L1,0 L1,1 L0,1 Z " fill="#4E90C1" transform="translate(38,56)"/>
<path d="M0,0 L1,0 L1,1 L0,1 Z " fill="#384056" transform="translate(105,55)"/>
<path d="M0,0 L1,0 L1,1 L0,1 Z " fill="#384157" transform="translate(22,55)"/>
<path d="M0,0 L1,0 L1,1 L0,1 Z " fill="#40698E" transform="translate(105,54)"/>
<path d="M0,0 L1,0 L1,1 L0,1 Z " fill="#416B91" transform="translate(22,54)"/>
<path d="M0,0 L1,0 L1,1 L0,1 Z " fill="#3B5572" transform="translate(106,53)"/>
<path d="M0,0 L1,0 L1,1 L0,1 Z " fill="#488CBF" transform="translate(105,53)"/>
<path d="M0,0 L1,0 L1,1 L0,1 Z " fill="#3C5675" transform="translate(21,53)"/>
<path d="M0,0 L1,0 L1,1 L0,1 Z " fill="#38475E" transform="translate(107,52)"/>
<path d="M0,0 L1,0 L1,1 L0,1 Z " fill="#4787B8" transform="translate(106,52)"/>
<path d="M0,0 L1,0 L1,1 L0,1 Z " fill="#4787B9" transform="translate(21,52)"/>
<path d="M0,0 L1,0 L1,1 L0,1 Z " fill="#394860" transform="translate(20,52)"/>
<path d="M0,0 L1,0 L1,1 L0,1 Z " fill="#447AA6" transform="translate(107,51)"/>
<path d="M0,0 L1,0 L1,1 L0,1 Z " fill="#447CA8" transform="translate(20,51)"/>
<path d="M0,0 L1,0 L1,1 L0,1 Z " fill="#3F6386" transform="translate(108,50)"/>
<path d="M0,0 L1,0 L1,1 L0,1 Z " fill="#3F6387" transform="translate(19,50)"/>
<path d="M0,0 L1,0 L1,1 L0,1 Z " fill="#3A4A63" transform="translate(109,49)"/>
<path d="M0,0 L1,0 L1,1 L0,1 Z " fill="#478ABD" transform="translate(108,49)"/>
<path d="M0,0 L1,0 L1,1 L0,1 Z " fill="#478ABD" transform="translate(19,49)"/>
<path d="M0,0 L1,0 L1,1 L0,1 Z " fill="#394A65" transform="translate(18,49)"/>
<path d="M0,0 L1,0 L1,1 L0,1 Z " fill="#373F54" transform="translate(110,48)"/>
<path d="M0,0 L1,0 L1,1 L0,1 Z " fill="#447BA7" transform="translate(109,48)"/>
<path d="M0,0 L1,0 L1,1 L0,1 Z " fill="#447BA8" transform="translate(18,48)"/>
<path d="M0,0 L1,0 L1,1 L0,1 Z " fill="#373F54" transform="translate(17,48)"/>
<path d="M0,0 L1,0 L1,1 L0,1 Z " fill="#3D5979" transform="translate(110,46)"/>
<path d="M0,0 L1,0 L1,1 L0,1 Z " fill="#3D5B7B" transform="translate(17,46)"/>
<path d="M0,0 L1,0 L1,1 L0,1 Z " fill="#42729B" transform="translate(109,45)"/>
<path d="M0,0 L1,0 L1,1 L0,1 Z " fill="#42749D" transform="translate(18,45)"/>
<path d="M0,0 L1,0 L1,1 L0,1 Z " fill="#38445B" transform="translate(109,44)"/>
<path d="M0,0 L1,0 L1,1 L0,1 Z " fill="#4685B6" transform="translate(108,44)"/>
<path d="M0,0 L1,0 L1,1 L0,1 Z " fill="#4686B6" transform="translate(19,44)"/>
<path d="M0,0 L1,0 L1,1 L0,1 Z " fill="#39455C" transform="translate(18,44)"/>
<path d="M0,0 L1,0 L1,1 L0,1 Z " fill="#3C5674" transform="translate(108,43)"/>
<path d="M0,0 L1,0 L1,1 L0,1 Z " fill="#3C5776" transform="translate(19,43)"/>
<path d="M0,0 L1,0 L1,1 L0,1 Z " fill="#416F96" transform="translate(107,42)"/>
<path d="M0,0 L1,0 L1,1 L0,1 Z " fill="#427098" transform="translate(20,42)"/>
<path d="M0,0 L1,0 L1,1 L0,1 Z " fill="#374259" transform="translate(107,41)"/>
<path d="M0,0 L1,0 L1,1 L0,1 Z " fill="#4582B2" transform="translate(106,41)"/>
<path d="M0,0 L1,0 L1,1 L0,1 Z " fill="#4684B2" transform="translate(21,41)"/>
<path d="M0,0 L1,0 L1,1 L0,1 Z " fill="#384259" transform="translate(20,41)"/>
<path d="M0,0 L1,0 L1,1 L0,1 Z " fill="#3A4C65" transform="translate(106,40)"/>
<path d="M0,0 L1,0 L1,1 L0,1 Z " fill="#4688B9" transform="translate(105,40)"/>
<path d="M0,0 L1,0 L1,1 L0,1 Z " fill="#4686B6" transform="translate(95,40)"/>
<path d="M0,0 L1,0 L1,1 L0,1 Z " fill="#40698F" transform="translate(93,40)"/>
<path d="M0,0 L1,0 L1,1 L0,1 Z " fill="#3C5A79" transform="translate(33,40)"/>
<path d="M0,0 L1,0 L1,1 L0,1 Z " fill="#4685B6" transform="translate(32,40)"/>
<path d="M0,0 L1,0 L1,1 L0,1 Z " fill="#4788BA" transform="translate(22,40)"/>
<path d="M0,0 L1,0 L1,1 L0,1 Z " fill="#3A4C67" transform="translate(21,40)"/>
<path d="M0,0 L1,0 L1,1 L0,1 Z " fill="#3B5370" transform="translate(105,39)"/>
<path d="M0,0 L1,0 L1,1 L0,1 Z " fill="#478BBE" transform="translate(104,39)"/>
<path d="M0,0 L1,0 L1,1 L0,1 Z " fill="#488CBF" transform="translate(97,39)"/>
<path d="M0,0 L1,0 L1,1 L0,1 Z " fill="#416E94" transform="translate(96,39)"/>
<path d="M0,0 L1,0 L1,1 L0,1 Z " fill="#38435A" transform="translate(95,39)"/>
<path d="M0,0 L1,0 L1,1 L0,1 Z " fill="#3E5F81" transform="translate(92,39)"/>
<path d="M0,0 L1,0 L1,1 L0,1 Z " fill="#478BBE" transform="translate(91,39)"/>
<path d="M0,0 L1,0 L1,1 L0,1 Z " fill="#488CBE" transform="translate(36,39)"/>
<path d="M0,0 L1,0 L1,1 L0,1 Z " fill="#3E6083" transform="translate(35,39)"/>
<path d="M0,0 L1,0 L1,1 L0,1 Z " fill="#384259" transform="translate(32,39)"/>
<path d="M0,0 L1,0 L1,1 L0,1 Z " fill="#406C93" transform="translate(31,39)"/>
<path d="M0,0 L1,0 L1,1 L0,1 Z " fill="#488CBE" transform="translate(30,39)"/>
<path d="M0,0 L1,0 L1,1 L0,1 Z " fill="#478BBE" transform="translate(23,39)"/>
<path d="M0,0 L1,0 L1,1 L0,1 Z " fill="#3C5572" transform="translate(22,39)"/>
<path d="M0,0 L1,0 L1,1 L0,1 Z " fill="#3E5E80" transform="translate(104,38)"/>
<path d="M0,0 L1,0 L1,1 L0,1 Z " fill="#457DAA" transform="translate(98,38)"/>
<path d="M0,0 L1,0 L1,1 L0,1 Z " fill="#3B506C" transform="translate(97,38)"/>
<path d="M0,0 L1,0 L1,1 L0,1 Z " fill="#3B536F" transform="translate(91,38)"/>
<path d="M0,0 L1,0 L1,1 L0,1 Z " fill="#4686B6" transform="translate(90,38)"/>
<path d="M0,0 L1,0 L1,1 L0,1 Z " fill="#4786B7" transform="translate(37,38)"/>
<path d="M0,0 L1,0 L1,1 L0,1 Z " fill="#3C5471" transform="translate(36,38)"/>
<path d="M0,0 L1,0 L1,1 L0,1 Z " fill="#3A4F6A" transform="translate(30,38)"/>
<path d="M0,0 L1,0 L1,1 L0,1 Z " fill="#447DAA" transform="translate(29,38)"/>
<path d="M0,0 L1,0 L1,1 L0,1 Z " fill="#3E6082" transform="translate(23,38)"/>
<path d="M0,0 L1,0 L1,1 L0,1 Z " fill="#40698F" transform="translate(103,37)"/>
<path d="M0,0 L1,0 L1,1 L0,1 Z " fill="#4582B2" transform="translate(100,37)"/>
<path d="M0,0 L1,0 L1,1 L0,1 Z " fill="#3D5A7A" transform="translate(99,37)"/>
<path d="M0,0 L1,0 L1,1 L0,1 Z " fill="#373E53" transform="translate(98,37)"/>
<path d="M0,0 L1,0 L1,1 L0,1 Z " fill="#39465E" transform="translate(90,37)"/>
<path d="M0,0 L1,0 L1,1 L0,1 Z " fill="#4479A5" transform="translate(89,37)"/>
<path d="M0,0 L1,0 L1,1 L0,1 Z " fill="#437AA5" transform="translate(38,37)"/>
<path d="M0,0 L1,0 L1,1 L0,1 Z " fill="#38475E" transform="translate(37,37)"/>
<path d="M0,0 L1,0 L1,1 L0,1 Z " fill="#3D5979" transform="translate(28,37)"/>
<path d="M0,0 L1,0 L1,1 L0,1 Z " fill="#4682B0" transform="translate(27,37)"/>
<path d="M0,0 L1,0 L1,1 L0,1 Z " fill="#406B91" transform="translate(24,37)"/>
<path d="M0,0 L1,0 L1,1 L0,1 Z " fill="#373F54" transform="translate(103,36)"/>
<path d="M0,0 L1,0 L1,1 L0,1 Z " fill="#3E6083" transform="translate(101,36)"/>
<path d="M0,0 L1,0 L1,1 L0,1 Z " fill="#374055" transform="translate(100,36)"/>
<path d="M0,0 L1,0 L1,1 L0,1 Z " fill="#3F6284" transform="translate(88,36)"/>
<path d="M0,0 L1,0 L1,1 L0,1 Z " fill="#478ABD" transform="translate(87,36)"/>
<path d="M0,0 L1,0 L1,1 L0,1 Z " fill="#488BBC" transform="translate(40,36)"/>
<path d="M0,0 L1,0 L1,1 L0,1 Z " fill="#3F6385" transform="translate(39,36)"/>
<path d="M0,0 L1,0 L1,1 L0,1 Z " fill="#373F54" transform="translate(38,36)"/>
<path d="M0,0 L1,0 L1,1 L0,1 Z " fill="#374055" transform="translate(27,36)"/>
<path d="M0,0 L1,0 L1,1 L0,1 Z " fill="#427098" transform="translate(25,36)"/>
<path d="M0,0 L1,0 L1,1 L0,1 Z " fill="#373F54" transform="translate(24,36)"/>
<path d="M0,0 L1,0 L1,1 L0,1 Z " fill="#394A65" transform="translate(87,35)"/>
<path d="M0,0 L1,0 L1,1 L0,1 Z " fill="#4479A4" transform="translate(86,35)"/>
<path d="M0,0 L1,0 L1,1 L0,1 Z " fill="#437AA5" transform="translate(41,35)"/>
<path d="M0,0 L1,0 L1,1 L0,1 Z " fill="#394B65" transform="translate(40,35)"/>
<path d="M0,0 L1,0 L1,1 L0,1 Z " fill="#3E6183" transform="translate(85,34)"/>
<path d="M0,0 L1,0 L1,1 L0,1 Z " fill="#3F6284" transform="translate(42,34)"/>
<path d="M0,0 L1,0 L1,1 L0,1 Z " fill="#373E53" transform="translate(41,34)"/>
<path d="M0,0 L1,0 L1,1 L0,1 Z " fill="#3E5C7D" transform="translate(85,32)"/>
<path d="M0,0 L1,0 L1,1 L0,1 Z " fill="#3D5C7D" transform="translate(42,32)"/>
<path d="M0,0 L1,0 L1,1 L0,1 Z " fill="#416C92" transform="translate(85,30)"/>
<path d="M0,0 L1,0 L1,1 L0,1 Z " fill="#416D94" transform="translate(42,30)"/>
<path d="M0,0 L1,0 L1,1 L0,1 Z " fill="#43749C" transform="translate(85,29)"/>
<path d="M0,0 L1,0 L1,1 L0,1 Z " fill="#43759F" transform="translate(42,29)"/>
<path d="M0,0 L1,0 L1,1 L0,1 Z " fill="#3A4D67" transform="translate(67,28)"/>
<path d="M0,0 L1,0 L1,1 L0,1 Z " fill="#3C5A79" transform="translate(65,28)"/>
<path d="M0,0 L1,0 L1,1 L0,1 Z " fill="#3C5370" transform="translate(61,28)"/>
<path d="M0,0 L1,0 L1,1 L0,1 Z " fill="#394760" transform="translate(59,28)"/>
<path d="M0,0 L1,0 L1,1 L0,1 Z " fill="#4683B3" transform="translate(58,28)"/>
<path d="M0,0 L1,0 L1,1 L0,1 Z " fill="#457CA8" transform="translate(85,27)"/>
<path d="M0,0 L1,0 L1,1 L0,1 Z " fill="#3E6184" transform="translate(69,27)"/>
<path d="M0,0 L1,0 L1,1 L0,1 Z " fill="#3E5F81" transform="translate(58,27)"/>
<path d="M0,0 L1,0 L1,1 L0,1 Z " fill="#457EAB" transform="translate(42,27)"/>
<path d="M0,0 L1,0 L1,1 L0,1 Z " fill="#4580AE" transform="translate(85,26)"/>
<path d="M0,0 L1,0 L1,1 L0,1 Z " fill="#384258" transform="translate(69,26)"/>
<path d="M0,0 L1,0 L1,1 L0,1 Z " fill="#374056" transform="translate(58,26)"/>
<path d="M0,0 L1,0 L1,1 L0,1 Z " fill="#4682B1" transform="translate(42,26)"/>
<path d="M0,0 L1,0 L1,1 L0,1 Z " fill="#3F6488" transform="translate(70,25)"/>
<path d="M0,0 L1,0 L1,1 L0,1 Z " fill="#3F6386" transform="translate(57,25)"/>
<path d="M0,0 L1,0 L1,1 L0,1 Z " fill="#4684B4" transform="translate(85,24)"/>
<path d="M0,0 L1,0 L1,1 L0,1 Z " fill="#384259" transform="translate(70,24)"/>
<path d="M0,0 L1,0 L1,1 L0,1 Z " fill="#374259" transform="translate(57,24)"/>
<path d="M0,0 L1,0 L1,1 L0,1 Z " fill="#4788B8" transform="translate(56,24)"/>
<path d="M0,0 L1,0 L1,1 L0,1 Z " fill="#478CBF" transform="translate(43,24)"/>
<path d="M0,0 L1,0 L1,1 L0,1 Z " fill="#4686B6" transform="translate(42,24)"/>
<path d="M0,0 L1,0 L1,1 L0,1 Z " fill="#3E5F80" transform="translate(84,23)"/>
<path d="M0,0 L1,0 L1,1 L0,1 Z " fill="#457FAD" transform="translate(83,23)"/>
<path d="M0,0 L1,0 L1,1 L0,1 Z " fill="#3F6386" transform="translate(71,23)"/>
<path d="M0,0 L1,0 L1,1 L0,1 Z " fill="#3E6183" transform="translate(56,23)"/>
<path d="M0,0 L1,0 L1,1 L0,1 Z " fill="#3E6081" transform="translate(43,23)"/>
<path d="M0,0 L1,0 L1,1 L0,1 Z " fill="#374259" transform="translate(42,23)"/>
<path d="M0,0 L1,0 L1,1 L0,1 Z " fill="#3B516E" transform="translate(82,22)"/>
<path d="M0,0 L1,0 L1,1 L0,1 Z " fill="#42729B" transform="translate(81,22)"/>
<path d="M0,0 L1,0 L1,1 L0,1 Z " fill="#488BBD" transform="translate(80,22)"/>
<path d="M0,0 L1,0 L1,1 L0,1 Z " fill="#4683B3" transform="translate(72,22)"/>
<path d="M0,0 L1,0 L1,1 L0,1 Z " fill="#384056" transform="translate(71,22)"/>
<path d="M0,0 L1,0 L1,1 L0,1 Z " fill="#374056" transform="translate(56,22)"/>
<path d="M0,0 L1,0 L1,1 L0,1 Z " fill="#4582B2" transform="translate(55,22)"/>
<path d="M0,0 L1,0 L1,1 L0,1 Z " fill="#478BBE" transform="translate(47,22)"/>
<path d="M0,0 L1,0 L1,1 L0,1 Z " fill="#42729B" transform="translate(46,22)"/>
<path d="M0,0 L1,0 L1,1 L0,1 Z " fill="#3B516E" transform="translate(45,22)"/>
<path d="M0,0 L1,0 L1,1 L0,1 Z " fill="#3F6182" transform="translate(79,21)"/>
<path d="M0,0 L1,0 L1,1 L0,1 Z " fill="#4377A1" transform="translate(78,21)"/>
<path d="M0,0 L1,0 L1,1 L0,1 Z " fill="#4789BB" transform="translate(77,21)"/>
<path d="M0,0 L1,0 L1,1 L0,1 Z " fill="#478CBF" transform="translate(73,21)"/>
<path d="M0,0 L1,0 L1,1 L0,1 Z " fill="#3D5B7B" transform="translate(72,21)"/>
<path d="M0,0 L1,0 L1,1 L0,1 Z " fill="#3D5979" transform="translate(55,21)"/>
<path d="M0,0 L1,0 L1,1 L0,1 Z " fill="#478ABB" transform="translate(50,21)"/>
<path d="M0,0 L1,0 L1,1 L0,1 Z " fill="#3E6083" transform="translate(48,21)"/>
<path d="M0,0 L1,0 L1,1 L0,1 Z " fill="#38455D" transform="translate(47,21)"/>
<path d="M0,0 L1,0 L1,1 L0,1 Z " fill="#3B526F" transform="translate(76,20)"/>
<path d="M0,0 L1,0 L1,1 L0,1 Z " fill="#3F688D" transform="translate(75,20)"/>
<path d="M0,0 L1,0 L1,1 L0,1 Z " fill="#457DAA" transform="translate(73,20)"/>
<path d="M0,0 L1,0 L1,1 L0,1 Z " fill="#373E53" transform="translate(55,20)"/>
<path d="M0,0 L1,0 L1,1 L0,1 Z " fill="#447EAC" transform="translate(53,20)"/>
<path d="M0,0 L1,0 L1,1 L0,1 Z " fill="#3B536F" transform="translate(51,20)"/>
<path d="M0,0 L1,0 L1,1 L0,1 Z " fill="#374056" transform="translate(50,20)"/>
<path d="M0,0 L1,0 L1,1 L0,1 Z " fill="#373F54" transform="translate(54,19)"/>
<path d="M0,0 L1,0 L1,1 L0,1 Z " fill="#222633" opacity="0.9019608" transform="translate(127,14)"/>
<path d="M0,0 L1,0 L1,1 L0,1 Z " fill="#33394D" transform="translate(123,14)"/>
<path d="M0,0 L1,0 L1,1 L0,1 Z " fill="#333A4D" transform="translate(4,14)"/>
<path d="M0,0 L1,0 L1,1 L0,1 Z " fill="#222634" opacity="0.90588236" transform="translate(0,14)"/>
<path d="M0,0 L1,0 L1,1 L0,1 Z " fill="#242837" opacity="0.6862745" transform="translate(127,12)"/>
<path d="M0,0 L1,0 L1,1 L0,1 Z " fill="#2A2F3F" transform="translate(123,12)"/>
<path d="M0,0 L1,0 L1,1 L0,1 Z " fill="#2A2F40" transform="translate(4,12)"/>
<path d="M0,0 L1,0 L1,1 L0,1 Z " fill="#252936" opacity="0.69411767" transform="translate(0,12)"/>
<path d="M0,0 L1,0 L1,1 L0,1 Z " fill="#232835" transform="translate(123,11)"/>
<path d="M0,0 L1,0 L1,1 L0,1 Z " fill="#232835" transform="translate(4,11)"/>
<path d="M0,0 L1,0 L1,1 L0,1 Z " fill="#222532" opacity="0.03529412" transform="translate(127,10)"/>
<path d="M0,0 L1,0 L1,1 L0,1 Z " fill="#222532" opacity="0.96862745" transform="translate(126,10)"/>
<path d="M0,0 L1,0 L1,1 L0,1 Z " fill="#2E3445" transform="translate(122,10)"/>
<path d="M0,0 L1,0 L1,1 L0,1 Z " fill="#2E3446" transform="translate(5,10)"/>
<path d="M0,0 L1,0 L1,1 L0,1 Z " fill="#212632" opacity="0.972549" transform="translate(1,10)"/>
<path d="M0,0 L1,0 L1,1 L0,1 Z " fill="#212632" opacity="0.047058824" transform="translate(0,10)"/>
<path d="M0,0 L1,0 L1,1 L0,1 Z " fill="#232835" transform="translate(122,9)"/>
<path d="M0,0 L1,0 L1,1 L0,1 Z " fill="#232835" transform="translate(5,9)"/>
<path d="M0,0 L1,0 L1,1 L0,1 Z " fill="#2A3140" opacity="0.14117648" transform="translate(126,8)"/>
<path d="M0,0 L1,0 L1,1 L0,1 Z " fill="#202632" opacity="0.9764706" transform="translate(125,8)"/>
<path d="M0,0 L1,0 L1,1 L0,1 Z " fill="#282D3C" transform="translate(121,8)"/>
<path d="M0,0 L1,0 L1,1 L0,1 Z " fill="#282D3C" transform="translate(6,8)"/>
<path d="M0,0 L1,0 L1,1 L0,1 Z " fill="#212432" opacity="0.98039216" transform="translate(2,8)"/>
<path d="M0,0 L1,0 L1,1 L0,1 Z " fill="#272D3B" opacity="0.15294118" transform="translate(1,8)"/>
<path d="M0,0 L1,0 L1,1 L0,1 Z " fill="#2A3040" transform="translate(120,7)"/>
<path d="M0,0 L1,0 L1,1 L0,1 Z " fill="#2B3041" transform="translate(7,7)"/>
<path d="M0,0 L1,0 L1,1 L0,1 Z " fill="#232734" opacity="0.050980393" transform="translate(125,6)"/>
<path d="M0,0 L1,0 L1,1 L0,1 Z " fill="#232734" opacity="0.85882354" transform="translate(124,6)"/>
<path d="M0,0 L1,0 L1,1 L0,1 Z " fill="#282D3C" transform="translate(119,6)"/>
<path d="M0,0 L1,0 L1,1 L0,1 Z " fill="#282D3C" transform="translate(8,6)"/>
<path d="M0,0 L1,0 L1,1 L0,1 Z " fill="#222733" opacity="0.87058824" transform="translate(3,6)"/>
<path d="M0,0 L1,0 L1,1 L0,1 Z " fill="#222733" opacity="0.05490196" transform="translate(2,6)"/>
<path d="M0,0 L1,0 L1,1 L0,1 Z " fill="#29303E" opacity="0.14509805" transform="translate(124,5)"/>
<path d="M0,0 L1,0 L1,1 L0,1 Z " fill="#232835" transform="translate(118,5)"/>
<path d="M0,0 L1,0 L1,1 L0,1 Z " fill="#2E3445" transform="translate(117,5)"/>
<path d="M0,0 L1,0 L1,1 L0,1 Z " fill="#2E3446" transform="translate(10,5)"/>
<path d="M0,0 L1,0 L1,1 L0,1 Z " fill="#232835" transform="translate(9,5)"/>
<path d="M0,0 L1,0 L1,1 L0,1 Z " fill="#2C2C40" opacity="0.15686275" transform="translate(3,5)"/>
<path d="M0,0 L1,0 L1,1 L0,1 Z " fill="#2B2F3B" opacity="0.25490198" transform="translate(123,4)"/>
<path d="M0,0 L1,0 L1,1 L0,1 Z " fill="#2A2F3F" transform="translate(115,4)"/>
<path d="M0,0 L1,0 L1,1 L0,1 Z " fill="#303649" transform="translate(114,4)"/>
<path d="M0,0 L1,0 L1,1 L0,1 Z " fill="#333A4D" transform="translate(113,4)"/>
<path d="M0,0 L1,0 L1,1 L0,1 Z " fill="#353C51" transform="translate(112,4)"/>
<path d="M0,0 L1,0 L1,1 L0,1 Z " fill="#333A4E" transform="translate(14,4)"/>
<path d="M0,0 L1,0 L1,1 L0,1 Z " fill="#2A3040" transform="translate(12,4)"/>
<path d="M0,0 L1,0 L1,1 L0,1 Z " fill="#242836" transform="translate(11,4)"/>
<path d="M0,0 L1,0 L1,1 L0,1 Z " fill="#292D3C" opacity="0.26666668" transform="translate(4,4)"/>
<path d="M0,0 L1,0 L1,1 L0,1 Z " fill="#29303E" opacity="0.14509805" transform="translate(122,3)"/>
<path d="M0,0 L1,0 L1,1 L0,1 Z " fill="#232734" opacity="0.85882354" transform="translate(121,3)"/>
<path d="M0,0 L1,0 L1,1 L0,1 Z " fill="#272D3B" opacity="0.15294118" transform="translate(5,3)"/>
<path d="M0,0 L1,0 L1,1 L0,1 Z " fill="#242938" opacity="0.050980393" transform="translate(121,2)"/>
<path d="M0,0 L1,0 L1,1 L0,1 Z " fill="#242938" opacity="0.627451" transform="translate(120,2)"/>
<path d="M0,0 L1,0 L1,1 L0,1 Z " fill="#212432" opacity="0.98039216" transform="translate(8,2)"/>
<path d="M0,0 L1,0 L1,1 L0,1 Z " fill="#242836" opacity="0.05490196" transform="translate(6,2)"/>
<path d="M0,0 L1,0 L1,1 L0,1 Z " fill="#29303E" opacity="0.14509805" transform="translate(119,1)"/>
<path d="M0,0 L1,0 L1,1 L0,1 Z " fill="#232836" opacity="0.7019608" transform="translate(118,1)"/>
<path d="M0,0 L1,0 L1,1 L0,1 Z " fill="#222532" opacity="0.96862745" transform="translate(117,1)"/>
<path d="M0,0 L1,0 L1,1 L0,1 Z " fill="#222532" opacity="0.96862745" transform="translate(10,1)"/>
<path d="M0,0 L1,0 L1,1 L0,1 Z " fill="#272D3B" opacity="0.15294118" transform="translate(8,1)"/>
<path d="M0,0 L1,0 L1,1 L0,1 Z " fill="#282B3B" opacity="0.37254903" transform="translate(116,0)"/>
<path d="M0,0 L1,0 L1,1 L0,1 Z " fill="#242837" opacity="0.6901961" transform="translate(115,0)"/>
<path d="M0,0 L1,0 L1,1 L0,1 Z " fill="#222632" opacity="0.90588236" transform="translate(113,0)"/>
<path d="M0,0 L1,0 L1,1 L0,1 Z " fill="#222532" opacity="0.96862745" transform="translate(112,0)"/>
<path d="M0,0 L1,0 L1,1 L0,1 Z " fill="#222632" opacity="0.90588236" transform="translate(14,0)"/>
<path d="M0,0 L1,0 L1,1 L0,1 Z " fill="#242837" opacity="0.6901961" transform="translate(12,0)"/>
<path d="M0,0 L1,0 L1,1 L0,1 Z " fill="#282A3A" opacity="0.039215688" transform="translate(10,0)"/>
</svg>
